<?xml version="1.0" encoding="utf-8"?>
<!-- Generator: Adobe Illustrator 23.0.5, SVG Export Plug-In . SVG Version: 6.00 Build 0)  -->
<svg version="1.1" id="Layer_1_1_" xmlns="http://www.w3.org/2000/svg" xmlns:xlink="http://www.w3.org/1999/xlink" x="0px" y="0px"
	 viewBox="0 0 153.3 174.3" style="enable-background:new 0 0 153.3 174.3;" xml:space="preserve">
<style type="text/css">
	.st0{fill:#FFFFFF;}
	.st1{fill:none;stroke:#FFFFFF;stroke-width:10;stroke-miterlimit:10;}
	.st2{fill:none;stroke:#FFFFFF;stroke-width:9;stroke-linecap:round;stroke-linejoin:round;stroke-miterlimit:10;}
	.st3{fill:none;stroke:#FFFFFF;stroke-width:9;stroke-miterlimit:10;}
	.st4{fill:none;stroke:#FFFFFF;stroke-width:8;stroke-miterlimit:10;}
</style>
<path class="st0" d="M-656.3,341v1.4c1.6-0.2,3.1-0.7,4.5-1.4H-656.3z M-657.7-38.2h-387c-6.6,0-12,5.4-12,12v356.7
	c0,6.6,5.4,12,12,12h232.8c-1.6-7.9-2.4-16-2.4-24.4c0-69.1,56-125,125-125c15.3,0,30,2.8,43.5,7.8v-227
	C-645.7-32.8-651.1-38.2-657.7-38.2z M-808.3,252c0,7.9-6.4,14.3-14.3,14.3h-57.1c-7.9,0-14.3-6.4-14.3-14.3V195
	c0-7.9,6.4-14.3,14.3-14.3h57.1c7.9,0,14.3,6.4,14.3,14.3V252z M-808.3,95h-99.9v21.2l28.7,50.2h-0.1c-10.5,0-19.6,5.8-24.6,14.3
	l-32.6-57.1h-42.7c-7.9,0-14.3-6.4-14.3-14.3V52.2c0-7.9,6.4-14.3,14.3-14.3h57.1c7.9,0,14.3,6.4,14.3,14.3v14.3h99.9V95z
	 M-708.4,109.3c0,7.9-6.4,14.3-14.3,14.3h-57.1c-7.9,0-14.3-6.4-14.3-14.3V52.2c0-7.9,6.4-14.3,14.3-14.3h57.1
	c7.9,0,14.3,6.4,14.3,14.3V109.3z"/>
<path class="st0" d="M-167.7-619.7c23.8,0,43.5-17.3,47.3-40H-27l-10.3,10.3L-26-638l29.7-29.7L-26-697.4L-37.4-686l10.3,10.3h-93.4
	c-3.8-22.7-23.5-40-47.3-40c-26.5,0-48,21.5-48,48S-194.2-619.7-167.7-619.7z"/>
<path class="st0" d="M156.3-675.7h-52.7c-3.8-22.7-23.5-40-47.3-40c-26.5,0-48,21.5-48,48s21.5,48,48,48c23.8,0,43.5-17.3,47.3-40
	h52.7c46.3,0,84,37.7,84,84s-37.7,84-84,84H27.6L38-502l-11.3-11.3L-3-483.6L26.6-454l11.3-11.3l-10.3-10.3h128.7
	c55.1,0,100-44.9,100-100C256.3-630.8,211.4-675.7,156.3-675.7z"/>
<circle class="st0" cx="200.3" cy="-299.7" r="48"/>
<path class="st0" d="M-23.7-347.7c-26.5,0-48,21.5-48,48s21.5,48,48,48c23.8,0,43.5-17.3,47.3-40H117l-10.3,10.3l11.3,11.3
	l29.7-29.7L118-329.5L106.6-318l10.3,10.3H23.6C19.8-330.4,0.1-347.7-23.7-347.7L-23.7-347.7z"/>
<path class="st0" d="M-123.7-291.7h16.7l-10.3,10.3l11.3,11.3l29.7-29.7l-29.7-29.7l-11.4,11.5l10.3,10.3h-16.6
	c-46.3,0-84-37.7-84-84s37.7-84,84-84h20.7c3.8,22.7,23.5,40,47.3,40c26.5,0,48-21.5,48-48s-21.5-48-48-48
	c-23.8,0-43.5,17.3-47.3,40h-20.7c-55.1,0-100,44.9-100,100S-178.8-291.7-123.7-291.7L-123.7-291.7z"/>
<g>
	<path class="st0" d="M334.1,319.5v48.3c0,11.5,5.1,18.1,13.8,18.1c30,0.1,59.9,0.1,89.8,0c0.3,0,0.6,0,0.9,0c0.4,0,0.8,0,1.3,0
		c1,0,1.9,0.1,2.9,0.2c0.5,0,1.1-0.1,1.6-0.1c0.8,0,1.6,0.1,2.4,0.2c0.3,0,0.5,0,0.8,0c0.5,0,1,0,1.5,0.1c0,0,0,0,0,0
		c1.1-0.1,2.1-0.2,3.2-0.2c12.5,0,25,0.1,37.5-0.1c1.7,0,3.4-1.7,5.1-2.5c-0.7-2.1-1.3-4.7-2.3-6.6c-1.9-3.1-4.1-6-6.3-8.5
		c-2.8-3.1-3.8-6.7-3.7-11.5c0.2-13.4,0.1-26.6,0.1-40c0-6.1-1-12.3-5.2-14.9c-0.6-0.4-1.1-0.8-1.6-1.3c-0.3-0.2-0.7-0.5-1-0.7
		c-0.2-0.1-0.4-0.3-0.6-0.4c-0.1,0-0.3-0.1-0.4-0.1c-0.2-0.1-0.4-0.1-0.6-0.2c-0.7-0.1-1.5-0.3-2.2-0.5c-0.6,0-1.3-0.1-1.9-0.2
		c-0.6,0.1-1.1,0.1-1.7,0.1c-0.5,0-0.9,0-1.4-0.1H349.8C338.3,298.6,334.1,304.3,334.1,319.5z M340.1,316.8c0-7.5,2.3-10.4,8-10.4
		h120.1c6.2,0,8.3,2.9,8.3,11.3c0.1,10.7,0.3,21.5-0.1,32.2c-0.4,10.1-0.4,19.9,7,26.4c0.1,0.2,0.1,0.5,0.3,1.3
		c-0.8,0.1-1.4,0.4-2,0.4c-44.9,0-89.6,0-134.5-0.1c-4.9,0-7-3.1-7-9.8C340,351,340,333.8,340.1,316.8z"/>
	<path class="st0" d="M423.1,351.1c-1.4,0.5-2.9,1.3-4.3,1.3c-1.3,0-2.7-0.8-3.7-1.7c-1.3-1.3-2-4.1-3.3-4.4
		c-3.2-0.7-6.7-0.6-9.9-0.1c-1.2,0.2-2,2.7-3.2,3.8s-2.8,1.7-4.2,2.5c-0.6-1.7-2-3.6-1.6-4.9c3.1-9,6.5-17.8,10-26.6
		c0.5-1.3,2.2-2.7,3.5-2.9c1.3-0.1,3.4,1.1,3.9,2.2c3.8,9.2,7.2,18.6,10.8,27.9c0.1,0.3,0.1,0.7,0.2,1
		C421.8,349.9,422.4,350.5,423.1,351.1z M410.3,338.9c-1.2-3.1-2.2-5.7-3.6-9.6c-1.5,3.8-2.5,6.5-3.7,9.6
		C405.7,338.9,407.7,338.9,410.3,338.9z"/>
	<path class="st0" d="M459.1,339.1c0,2.2,0,4.3,0,7.1c2.7,0,5.3-0.4,7.6,0.1c1.4,0.3,2.5,1.9,3.8,3c-1.2,1.1-2.3,3-3.6,3.2
		c-3.6,0.4-7.4,0.6-10.9,0c-1.5-0.2-3.6-2.6-3.6-4.1c-0.3-8.8-0.1-17.6-0.1-26.4c0-0.3-0.1-0.8,0.1-1c1.6-1.1,3.3-3,4.9-2.9
		c4.4,0.4,9.4-2.4,12.9,2.1c0.3,0.4-1.4,3.2-2.8,4c-1.3,0.7-3.2,0.3-4.9,0.2c-2.9-0.2-3.8,1-3.8,3.8c0,2.6,0.6,4,3.6,3.9
		c2.7,0,7.1-1.4,7.2,3c0.1,4.8-4.5,3-7.3,3.5C461.3,338.7,460.4,338.9,459.1,339.1z"/>
	<path class="st0" d="M375.1,332.1c2.6,0,5-0.3,7.2,0.1c1.3,0.3,2.3,1.8,3.5,2.8c-1.2,1.2-2.1,3-3.5,3.4c-2.1,0.6-4.5,0.2-7.1,0.2
		c0,2.8,0,4.9,0,7.7c2.7,0,5.2-0.4,7.6,0.1c1.4,0.3,2.5,1.9,3.8,3c-1.2,1.1-2.3,3-3.6,3.2c-3.6,0.4-7.4,0.6-10.9,0
		c-1.4-0.2-3.5-2.6-3.6-4.1c-0.3-8.6-0.2-17.3-0.1-26c0-0.3-0.1-0.8,0.1-1c1.5-1.2,3.1-3.4,4.5-3.3c4.5,0.4,9.7-2.5,13.4,2.1
		c0.2,0.3-1.9,3.5-3.4,3.9c-2.3,0.7-4.9,0.2-7.7,0.2C375.1,327.1,375.1,329.3,375.1,332.1z"/>
	<path class="st0" d="M434.1,338.8c1.9-5.7,3.5-11.5,5.7-17c0.7-1.6,3.1-2.5,4.7-3.8c0.5,1.9,1.8,3.9,1.3,5.5
		c-2.5,8.4-5.3,16.8-8.3,25.1c-0.6,1.6-2.7,3.9-3.8,3.8c-1.6-0.3-3.7-2.1-4.3-3.8c-3.1-8.2-6-16.5-8.6-25c-0.5-1.6,0.7-3.7,1.1-5.6
		c1.7,1.2,4.1,2,4.8,3.6c2.4,5.6,4.2,11.4,6.2,17.2C433.3,338.9,433.7,338.9,434.1,338.8z"/>
	<path class="st0" d="M352.5,346.3c2.6,0,4.6-0.4,6.2,0.1c1.4,0.5,2.4,2.1,3.6,3.2c-1.1,1.1-2.1,2.9-3.3,3c-3.1,0.4-6.4,0.6-9.4,0
		c-1.5-0.3-3.5-2.7-3.5-4.3c-0.3-8.8-0.3-17.6,0-26.4c0-1.4,2.1-2.7,3.2-4.1c1.1,1.4,3,2.8,3.1,4.2
		C352.7,329.9,352.5,337.7,352.5,346.3z"/>
	<path class="st0" d="M436.3,235.6c-0.2-9.8-7.6-17-17.4-17.1c-23.3-0.2-46.7-0.2-70,0c-10.1,0-17.4,7.5-17.4,17.5
		c-0.1,44.3-0.1,88.7,0,133c0,9.8,7.3,17.2,17.1,17.3c23.5,0.2,47,0.2,70.5,0c5.1-0.1,9.5-1.9,12.5-5.4c-0.2,0-0.3,0-0.5-0.1
		c-0.9-0.2-1.6-0.4-2.3-0.5c-0.7,0-1.4-0.1-2.1-0.2c-1.4-0.2-2.7-0.5-3.9-1.1c-1.2,0.4-2.6,0.6-4.3,0.6c-11.3,0.2-22.7,0.1-34,0.1
		c-11.7,0-23.3,0-35-0.1c-6.9-0.1-11.1-4.1-11.2-10.8c-0.2-16.9-0.1-33.7-0.1-50.5c-3.1-4.8-1-11.9,5.4-14.5
		c5.8-2.3,13.8-0.9,19.9-1c4.9,0,9.8-0.3,14.7-0.4c-3.8-0.3-7.6-0.1-11.8-0.1v-13.4c0-0.3,0.1-0.7,0.2-1c2.1-8.1,9.2-11.5,21.6-10.4
		c7.6,0.7,12.9,6.1,13.3,13.7c0.2,4.3,0.6,8-4.6,10.5c1.2-0.3,2.5-0.4,3.8-0.4c1.2,0,2.3,0.1,3.4,0.3c1.3-0.3,2.5-0.5,3.8-0.7
		c1-0.8,2.1-1.5,3.2-2h-2.3c-3.3-23.3-7.9-28.1-26.3-28.1c-6-0.1-11.4,1.3-16.1,5.4c-7.9,7-7,16.4-7,25.7h-21.1
		c-0.1-1.5-0.3-2.7-0.3-3.8c0-20.2-0.1-40.3,0-60.5c0.1-8.9,3.9-12.7,12.9-12.7h65.5c9.4,0.1,13.1,3.7,13.1,13
		c0.1,16.2,0,32.3,0.2,48.5c0.1,1.6,2,3.3,3,4.9c1.2-1.6,3.4-3.2,3.4-4.9C436.5,269.6,436.6,252.6,436.3,235.6z"/>
	<path class="st0" d="M383.6,239.5c12.2-0.1,14,1.2,14,10c0,11.1-5,17.6-13.6,17.7c-8.4,0.1-14-6.4-14-16.4
		C370,240.6,371.2,239.6,383.6,239.5z M376.8,246.6c0.2,4.8-1.8,9.9,3.4,12.7c1.9,1,5.4,1,7.3-0.1c5-2.9,3.4-7.9,3.2-12.7
		C386,246.6,381.7,246.6,376.8,246.6z"/>
</g>
<path class="st0" d="M273.3-181.8c0-1,0-1.7,0-2.3c0-7.3,0-14.6,0-21.9c0.1-9.9,7.4-18,16.8-18.8c10.5-0.9,19.2,5.5,21.1,15.5
	c0.2,1.3,0.2,2.7,0.3,4.1c0,7,0,14.1,0,21.1c0,0.7,0,1.4,0,2.4c0.9,0,1.7,0,2.4,0c18.9,0,37.9,0.2,56.8-0.1
	c6.7-0.1,11.9,4.6,11.8,11.7c-0.2,20.8-0.1,41.6-0.1,62.4c0,2.1,0.6,3.6,2,5.1c11.7,12.8,14.3,31.5,6.5,46.9
	c-13.7,27.5-51.1,31.5-70.3,7.7c-0.9-1.1-1.8-1.5-3.2-1.5c-34.4,0-68.8-0.1-103.1,0.1c-6.4,0-11.8-4.3-11.7-11.8
	c0.2-36.4,0.1-72.9,0.1-109.3c0-5.7,3-9.8,8.2-10.9c0.9-0.2,1.9-0.2,2.9-0.2c19.1,0,38.1,0,57.2,0
	C271.6-181.8,272.3-181.8,273.3-181.8z M376.9-109.7c0-0.8,0-1.4,0-2.1c0-19.5,0-39,0-58.5c0-4.1-1.5-5.6-5.6-5.6
	c-19.1,0-38.3,0-57.4,0c-0.7,0-1.4,0-2.2,0c0,3.9,0,7.5,0,11.1c0,2.1-1,3.2-3,3.2c-10.7,0-21.5,0-32.2,0c-2,0-2.9-1-3-3.1
	c-0.1-3,0-6.1,0-9.1c0-0.7-0.1-1.4-0.1-2.1c-0.9,0-1.6,0-2.3,0c-19,0-38,0-57,0c-4.2,0-5.7,1.5-5.7,5.7c0,36.3,0,72.6-0.1,108.9
	c0,4.1,1.9,6.2,6.3,6.2c33.2,0,66.4,0,99.6,0c0.5,0,1.1-0.1,1.6-0.1c-7.8-18.3-5.9-35.2,8.4-49C339.9-119.3,357.9-119.9,376.9-109.7
	z M389.4-74.4c0-19.8-16.3-36.2-36.1-36.2c-19.9,0-36.3,16.3-36.2,36.3c0,19.8,16.4,36.1,36.2,36.1
	C373.1-38.2,389.4-54.6,389.4-74.4z M305.5-167.6c0.1-0.4,0.1-0.7,0.1-1c0-12.7,0.1-25.4-0.1-38.1c0-1.9-0.7-3.8-1.5-5.5
	c-2.7-5.3-8.8-8-14.6-6.6c-6,1.5-10.3,6.7-10.3,12.9c-0.1,12.4,0,24.8,0,37.2c0,0.4,0.1,0.7,0.1,1.1
	C288-167.6,296.7-167.6,305.5-167.6z"/>
<path class="st0" d="M-108.4,441.5c-3.6-0.7-7.3-0.8-11.7-1.2c20.4-10.4,24.6-29.1,21.3-42.3c-3.9-15.4-16.8-26.6-32.2-27.7
	c-16.7-1.2-31.4,7.8-37.2,22.8c-3.5,9.1-3.5,18.2,0.2,27.2c3.7,9.1,10.4,15.4,19,20c-1.4,0.4-2.6,0.3-3.8,0.4
	c-20.1,0.7-36.4,13.6-40.5,32.6c-1.2,5.6-1,11.6-1.1,17.4c-0.2,6.9,1.4,8.4,8.2,8.4h56.8c0.4-4,1.3-7.8,2.7-11.4h-55.8
	c-3.8-16,8.8-34.2,25.4-35.2c14.8-0.9,29.8-0.9,44.6,0c6.8,0.4,13,3.6,17.5,8.5c2.7-0.5,5.6-0.8,8.5-0.8c1.9,0,3.8,0.1,5.6,0.4
	C-86.7,450.9-96.3,444-108.4,441.5z M-134.9,431.7c-13.9-0.1-25.3-11.7-25.1-25.5c0.2-13.9,11.3-24.8,25.3-24.8s25.2,11.2,25.2,25.2
	C-109.6,420.7-120.9,431.8-134.9,431.7z"/>
<circle class="st1" cx="-87" cy="503.6" r="43.3"/>
<polygon class="st2" points="-152,861.5 -162,766.2 -67.3,852.6 "/>
<polygon class="st3" points="-162.6,766.5 -389.3,766.5 -389.3,1165.5 -66.8,1165.5 -66.8,851.7 "/>
<circle class="st2" cx="-357.2" cy="1108" r="95.5"/>
<circle class="st0" cx="-367.6" cy="1108" r="21.7"/>
<path class="st0" d="M450.8,109.8c3,0,5.1,1.4,6.4,3.3c0.3,0,0.5,0,0.8,0c0.6,0,1.2,0.1,1.7,0.2v-87c-0.3-0.7-0.4-1.5-0.8-2.2
	c-1.2-2.3-3.1-3.8-5.7-3.9c-4.8-0.1-9.7-0.1-14.5-0.1c-0.1,0-0.2,0-0.4,0.1c0,0.3,0,0.6,0,0.9c-0.1,2.8,0.1,5.6-0.2,8.4
	c-0.7,6.9-6.6,12.9-13.5,14c-9.2,1.5-17.5-4.3-19.2-13.4c-0.2-1.1-0.2-2.2-0.3-3.3c0-2.2,0-4.4,0-6.6h-42.7c0,0.3,0,0.6,0,0.8
	c0,2.1,0,4.3,0,6.4c-0.1,8.3-6.4,15.4-14.9,16.3c-8.8,0.9-16.7-5.2-18.1-13.8c-0.4-2.8-0.2-5.7-0.3-8.6c0-0.4,0-0.8,0-1.2h-0.9
	c-4.3,0-8.6,0-12.9,0c-3.9,0-6.5,2.1-7.4,5.9c0,0.1-0.1,0.1-0.1,0.2v120.5c0.4,1.7,1.1,3.2,2.4,4.4c1.1,1,2.4,1.4,3.8,1.8h96.5
	c-0.8-0.7-1.3-1.5-1.6-2.5c-0.5-0.9-0.7-2-0.7-3.1c0-0.2,0-0.3,0-0.5c0.1-0.7,0.2-1.5,0.3-2.2c0-0.1,0-0.2,0-0.2
	c0.4-1.3,0.9-2.3,1.7-3.3h-90.6V50.7h128.2v59.6C448.7,110,449.7,109.8,450.8,109.8z"/>
<path class="st0" d="M346.7,1.1c0.3,0.1,0.7,0.2,1,0.3c3,0.9,5.1,3.5,5.1,6.6c0,6.5,0.1,12.9,0,19.4c0,3.9-3.2,6.9-7.1,6.9
	c-3.9,0-7.1-3.1-7.1-7c0-6.4,0-12.8,0-19.2c0-3.4,2.4-6.1,5.7-6.8c0.2,0,0.3-0.1,0.5-0.2C345.4,1.1,346,1.1,346.7,1.1z"/>
<path class="st0" d="M422.6,1.1c0.3,0.1,0.7,0.2,1,0.3c3,0.9,5.1,3.5,5.1,6.6c0,6.5,0.1,12.9,0,19.4c0,3.9-3.2,6.9-7.1,6.9
	c-3.9,0-7.1-3.1-7.1-7c0-6.4,0-12.8,0-19.2c0-3.4,2.4-6.1,5.7-6.8c0.2,0,0.3-0.1,0.5-0.2C421.3,1.1,422,1.1,422.6,1.1z"/>
<path class="st0" d="M-511.7,626.3h-147.3c-11.1,0-20.1,9-20.1,20.1v147.3c0,11.1,9,20.1,20.1,20.1h147.3c11.1,0,20.1-9,20.1-20.1
	V646.4C-491.6,635.3-500.6,626.3-511.7,626.3z M-525.1,731.8c0,2.8-2.3,5-5,5h-38.5v38.5c0,2.8-2.3,5-5,5h-23.4c-2.8,0-5-2.3-5-5
	v-38.5h-38.5c-2.8,0-5-2.3-5-5v-23.4c0-2.8,2.3-5,5-5h38.5v-38.5c0-2.8,2.3-5,5-5h23.4c2.8,0,5,2.3,5,5v38.5h38.5c2.8,0,5,2.3,5,5
	V731.8z"/>
<path class="st0" d="M4.3-88.9h-22.5c-3.1,0-5.6,2.5-5.6,5.6v22.5c0,3.1,2.5,5.6,5.6,5.6H4.3c3.1,0,5.6-2.5,5.6-5.6v-22.5
	C9.9-86.3,7.4-88.9,4.3-88.9z M-29.4-139.4c0-3.1-2.5-5.6-5.6-5.6h-22.5c-3.1,0-5.6,2.5-5.6,5.6v22.5c0,3.1,2.5,5.6,5.6,5.6h16.8
	l12.8,22.5c1.9-3.3,5.5-5.6,9.7-5.6h0l-11.3-19.7v-8.3H9.9v-11.2h-39.3V-139.4z M43.6-145H21.2c-3.1,0-5.6,2.5-5.6,5.6v22.5
	c0,3.1,2.5,5.6,5.6,5.6h22.5c3.1,0,5.6-2.5,5.6-5.6v-22.5C49.3-142.5,46.7-145,43.6-145z"/>
<path class="st3" d="M14.2-36.7h-88.5c-1.2,0-2.1-0.9-2.1-2.1v-122.6c0-1.2,0.9-2.1,2.1-2.1H60.5c1.2,0,2.1,0.9,2.1,2.1v72.2"/>
<path class="st0" d="M63.3-91.6c-3.2-0.8-6.6-1.2-10-1.2C29.9-92.8,11-73.8,11-50.5c0,2.5,0.2,4.9,0.6,7.3c3.5,19.9,20.8,35,41.7,35
	c23.4,0,42.3-18.9,42.3-42.3C95.6-70.4,81.8-87.1,63.3-91.6z M77.8-45.7c0,1.1-0.9,2-2,2H60.1V-28c0,1.1-0.9,2-2,2h-9.6
	c-1.1,0-2-0.9-2-2v-15.7H30.8c-1.1,0-2-0.9-2-2v-9.5c0-1.1,0.9-2,2-2h15.7V-73c0-1.1,0.9-2,2-2h9.6c1.1,0,2,0.9,2,2v15.7h15.7
	c1.1,0,2,0.9,2,2V-45.7z"/>
<path class="st0" d="M-248.9-108.5c-6.9,0-13.6,0-20.3,0c-2.7,0-5.3,0-8,0c-7.6-0.1-13.5-5.8-13.5-13.4c0-36,0-72.1,0-108.1
	c0-7.5,5.7-13.2,13.3-13.3c9.5-0.1,19,0,28.5,0c31.1,0,62.2,0,93.3,0c9.4,0,14.7,5.3,14.7,14.7c0,35.3,0,70.5,0,105.8
	c0,8.9-5.6,14.4-14.4,14.4c-8.2,0-16.5,0-24.7,0c-0.8,0-1.7,0-2.5,0c-1.5-22.9-20.4-33.4-35-32.5
	C-230.9-140.2-247.4-130.4-248.9-108.5z M-197.2-152.2c-11.9,0-23.7,0-35.6,0c-0.7,0-1.6-0.2-2.1,0.1c-0.9,0.6-2,1.5-2.1,2.4
	c0,0.8,1.1,1.8,2,2.4c0.5,0.3,1.4,0.1,2.1,0.1c23.7,0,47.4,0,71.1,0c0.6,0,1.4,0.2,1.8-0.1c0.9-0.7,2.1-1.5,2.3-2.4
	c0.3-1.5-0.9-2.3-2.4-2.5c-0.6-0.1-1.3,0-1.9,0C-173.6-152.2-185.4-152.2-197.2-152.2z M-197.1-224.8c-11.9,0-23.9,0-35.8,0
	c-0.6,0-1.4-0.2-1.8,0.1c-0.8,0.6-2,1.5-2.1,2.3c0,0.8,1.1,1.8,1.9,2.5c0.5,0.3,1.4,0.1,2.1,0.1c23.7,0,47.4,0,71.1,0
	c0.6,0,1.4,0.2,1.8-0.1c0.9-0.6,2.2-1.5,2.4-2.4c0.3-1.5-0.9-2.4-2.4-2.5c-0.6-0.1-1.3,0-1.9,0
	C-173.6-224.8-185.4-224.8-197.1-224.8z M-197.3-182.9c11.8,0,23.7,0,35.5,0c0.7,0,1.6,0.2,2.1-0.1c0.9-0.6,2.1-1.5,2.1-2.3
	c0-0.8-1.1-1.8-2-2.4c-0.5-0.3-1.4-0.1-2.1-0.1c-23.8,0-47.6,0-71.3,0c-0.6,0-1.4-0.2-1.8,0.1c-0.9,0.6-1.9,1.4-2.1,2.3
	c-0.3,1.4,0.8,2.3,2.2,2.5c0.6,0.1,1.3,0,1.9,0C-221-182.9-209.1-182.9-197.3-182.9z M-257.1-146.3c2.4,2.4,4.5,4.5,6.6,6.6
	c1.2,1.2,2.6,2.1,4.1,0.6c1.5-1.4,0.8-2.8-0.5-4.1c-2.2-2.1-4.4-4.2-6.6-6.3c2.4-2.5,4.5-4.7,6.7-6.8c1.1-1,1.6-2.1,0.9-3.5
	c-0.8-1.7-2.7-1.8-4.4,0c-2.2,2.2-4.3,4.4-6.5,6.7c-2.4-2.4-4.5-4.5-6.6-6.6c-1.2-1.3-2.6-2.1-4.1-0.6c-1.5,1.4-0.8,2.9,0.5,4.1
	c2.2,2.1,4.5,4.2,6.9,6.4c-2.6,2.5-4.8,4.6-6.9,6.8c-1.3,1.2-1.9,2.6-0.4,4.1c1.4,1.3,2.7,0.7,3.9-0.5
	C-261.5-141.7-259.4-143.9-257.1-146.3z M-265.9-181.2c-1.5-1.7-2.7-3-3.9-4.3c-1.1-1.1-2.4-1.1-3.5,0c-1.1,1.1-1,2.3,0,3.4
	c1.9,2,3.8,4,5.9,5.7c0.7,0.6,2.7,0.6,3.3,0c6.1-5.8,12-11.8,17.9-17.7c1.1-1.1,1.1-2.5-0.1-3.5c-1.1-1-2.3-0.8-3.4,0.1
	c-0.4,0.3-0.7,0.7-1,1C-255.7-191.6-260.6-186.6-265.9-181.2z M-266-214.5c-1.4-1.5-2.5-2.9-3.8-4.1c-1.1-1.1-2.4-1.3-3.6-0.2
	c-1.3,1.2-1.1,2.5,0.1,3.7c1.6,1.7,3.3,3.4,5,5c1.9,1.8,2.8,1.8,4.8-0.1c1.6-1.5,3.1-3.1,4.7-4.7c4-4,8-8,12-12
	c1.2-1.2,1.7-2.6,0.5-3.9c-1.3-1.4-2.7-0.9-3.9,0.3c-0.5,0.6-1.1,1.1-1.7,1.7C-256.5-224.1-261-219.5-266-214.5z"/>
<g>
	<path class="st0" d="M119.3,129.5c-0.2,22.9-18.8,41.4-41.6,41.2c-23.4-0.2-41.7-18.8-41.5-42c0.2-23.1,19-41.6,41.9-41.2
		C101.4,87.8,119.5,106.4,119.3,129.5z M81.5,123.6c0-5.3,0-10,0-14.8c0-4.6-1-6.5-3.7-6.2c-4.1,0.3-3.6,3.6-3.6,6.3
		c0,4.8,0,9.7,0,14.7c-6.1,0-11.5,0-17,0c-2.2,0-3.9,1-4,3.5c-0.1,2.6,1.5,3.7,3.9,4c0.9,0.1,1.9,0,2.8,0c4.6,0,9.3,0,14.2,0
		c0.1,1.5,0.2,2.6,0.2,3.8c0,4.3,0.1,8.6,0,12.9c0,2.5,1,4.2,3.5,4.3c2.5,0.1,3.8-1.6,3.7-4.1c0-1,0-2.1,0-3.1c0-4.5,0-9,0-13.8
		c5.8,0,11,0,16.3,0c2.6,0,4.8-0.7,4.8-3.7c0-3-2.2-3.7-4.9-3.7C92.4,123.7,87.2,123.6,81.5,123.6z"/>
	<path class="st0" d="M59,18c-0.8-0.8-2-0.8-2.8,0c0,0,0,0,0,0L45.9,28.2l-3.7-3.6c-0.8-0.8-2-0.8-2.8,0c0,0,0,0,0,0l-2.5,2.5
		c-0.8,0.8-0.8,2,0,2.8c0,0,0,0,0,0l7.7,7.7c0.8,0.8,2.1,0.8,2.9,0l2.5-2.5l11.7-11.7c0.8-0.8,0.8-2,0-2.8L59,18z M59,43.8
		c-0.8-0.8-2-0.8-2.8,0c0,0,0,0,0,0L45.9,54.1l-3.7-3.6c-0.8-0.8-2-0.8-2.8,0c0,0,0,0,0,0l-2.5,2.5c-0.8,0.8-0.8,2,0,2.8
		c0,0,0,0,0,0l7.7,7.7c0.8,0.8,2.1,0.8,2.9,0L50,61l11.7-11.7c0.8-0.8,0.8-2,0-2.7L59,43.8z M46.7,71.9c-4.3,0-7.9,3.5-7.9,7.8
		c0,4.3,3.6,7.8,7.9,7.8c4.3,0,7.8-3.5,7.8-7.8S51,71.9,46.7,71.9z M116.7,74.5H70c-1.4,0-2.6,1.2-2.6,2.6v5.2
		c0,1.4,1.2,2.6,2.6,2.6h46.7c1.4,0,2.6-1.2,2.6-2.6v-5.2C119.3,75.6,118.2,74.5,116.7,74.5z M116.7,22.6H70c-1.4,0-2.6,1.2-2.6,2.6
		v5.2c0,1.4,1.2,2.6,2.6,2.6h46.7c1.4,0,2.6-1.2,2.6-2.6v-5.2C119.3,23.8,118.2,22.6,116.7,22.6z M116.7,48.5H70
		c-1.4,0-2.6,1.2-2.6,2.6v5.2c0,1.4,1.2,2.6,2.6,2.6h46.7c1.4,0,2.6-1.2,2.6-2.6v-5.2C119.3,49.7,118.2,48.5,116.7,48.5z"/>
	<path class="st4" d="M104.5,115.6h22.4c4.7,0,8.5-3.8,8.5-8.5V12.9c0-4.6-3.8-8.5-8.5-8.5H28.7c-4.6,0-8.5,3.8-8.5,8.5v94.2
		c0,4.7,3.8,8.5,8.5,8.5h23.8"/>
</g>
</svg>
