<?xml version="1.0" encoding="utf-8"?>
<!-- Generator: Adobe Illustrator 23.0.5, SVG Export Plug-In . SVG Version: 6.00 Build 0)  -->
<svg version="1.1" id="Layer_1_1_" xmlns="http://www.w3.org/2000/svg" xmlns:xlink="http://www.w3.org/1999/xlink" x="0px" y="0px"
	 viewBox="0 0 181.7 188" style="enable-background:new 0 0 181.7 188;" xml:space="preserve">
<style type="text/css">
	.st0{fill:#FFFFFF;}
	.st1{fill:none;stroke:#FFFFFF;stroke-width:10;stroke-miterlimit:10;}
</style>
<path class="st0" d="M-147-619.7c23.8,0,43.5-17.3,47.3-40h93.4l-10.3,10.3L-5.3-638l29.7-29.7l-29.7-29.7L-16.7-686l10.3,10.3
	h-93.4c-3.8-22.7-23.5-40-47.3-40c-26.5,0-48,21.5-48,48S-173.5-619.7-147-619.7z"/>
<path class="st0" d="M177-675.7h-52.7c-3.8-22.7-23.5-40-47.3-40c-26.5,0-48,21.5-48,48s21.5,48,48,48c23.8,0,43.5-17.3,47.3-40H177
	c46.3,0,84,37.7,84,84s-37.7,84-84,84H48.3L58.7-502l-11.3-11.3l-29.7,29.7L47.3-454l11.3-11.3l-10.3-10.3H177
	c55.1,0,100-44.9,100-100C277-630.8,232.1-675.7,177-675.7z"/>
<circle class="st0" cx="221" cy="-299.7" r="48"/>
<path class="st0" d="M-3-347.7c-26.5,0-48,21.5-48,48s21.5,48,48,48c23.8,0,43.5-17.3,47.3-40h93.4l-10.3,10.3l11.3,11.3l29.7-29.7
	l-29.7-29.7L127.3-318l10.3,10.3H44.3C40.5-330.4,20.8-347.7-3-347.7L-3-347.7z"/>
<path class="st0" d="M-103-291.7h16.7l-10.3,10.3l11.3,11.3l29.7-29.7l-29.7-29.7L-96.7-318l10.3,10.3H-103c-46.3,0-84-37.7-84-84
	s37.7-84,84-84h20.7c3.8,22.7,23.5,40,47.3,40c26.5,0,48-21.5,48-48s-21.5-48-48-48c-23.8,0-43.5,17.3-47.3,40H-103
	c-55.1,0-100,44.9-100,100S-158.1-291.7-103-291.7L-103-291.7z"/>
<path class="st0" d="M509.8,66c0.7-0.3,1.3-0.6,2-0.9c1.3-0.7,2.6-1.1,4-1.3c3.9-2.8,6.1-8.1,6.1-15.4c0-8.8-1.8-10.1-14-10
	c-12.4,0.1-13.6,1.1-13.6,11.3c0,10,5.6,16.5,14,16.4C508.8,66.1,509.3,66.1,509.8,66z M504.5,58.2c-5.2-2.8-3.2-7.9-3.4-12.7
	c4.9,0,9.2,0,13.9-0.1c0.2,4.8,1.8,9.8-3.2,12.7C509.9,59.2,506.4,59.2,504.5,58.2z"/>
<path class="st0" d="M382.7,31.6H254c-0.5,0-1,0.1-1.5,0.1c-0.6,0-1.3,0-1.9-0.1c-0.7,0.1-1.4,0.2-2.1,0.2c-0.8,0.2-1.6,0.4-2.4,0.4
	c-0.2,0.1-0.5,0.1-0.7,0.2c-0.1,0-0.3,0.1-0.4,0.1c-0.2,0.1-0.4,0.2-0.7,0.3c-0.4,0.2-0.7,0.4-1.1,0.6c-0.5,0.4-1.1,0.7-1.8,1.1
	c-4.7,2.2-5.8,7.4-5.8,12.5c0,11.2-0.1,22.3,0.1,33.5c0.1,4-1,7-4.1,9.6c-2.5,2.1-4.9,4.5-7,7.1c-1.2,1.6-1.8,3.7-2.6,5.5
	c1.8,0.7,3.7,2.1,5.6,2.1c13.8,0.2,27.7,0.1,41.5,0.1c1.2,0,2.3,0.1,3.5,0.2c0,0,0,0,0,0c0.6,0,1.1-0.1,1.7-0.1c0.3,0,0.6,0,0.9,0
	c0.9-0.1,1.7-0.1,2.6-0.1c0.6,0,1.2,0,1.8,0.1c1.1-0.1,2.1-0.2,3.2-0.2c0.5,0,0.9,0,1.4,0c0.3,0,0.7,0,1,0c33.2,0.1,66.3,0.1,99.5,0
	c9.7,0,15.3-5.6,15.3-15.2V49.1C400.1,36.4,395.4,31.6,382.7,31.6z M393.4,89.8c0,5.6-2.4,8.2-7.8,8.2c-49.7,0.1-99.3,0.1-149,0.1
	c-0.6,0-1.3-0.2-2.2-0.3c0.2-0.7,0.2-0.9,0.3-1.1c8.1-5.4,8.1-13.6,7.7-22.1c-0.4-9-0.2-18-0.1-27c0-7.1,2.3-9.5,9.2-9.5h133
	c6.4,0,8.9,2.4,8.9,8.7C393.5,61.1,393.5,75.5,393.4,89.8z"/>
<g>
	<path class="st0" d="M12.7,112.2v48.3c0,11.5,5.1,18.1,13.8,18.1c30,0.1,59.9,0.1,89.8,0c0.3,0,0.6,0,0.9,0c0.4,0,0.8,0,1.3,0
		c1,0,1.9,0.1,2.9,0.2c0.5,0,1.1-0.1,1.6-0.1c0.8,0,1.6,0.1,2.4,0.2c0.3,0,0.5,0,0.8,0c0.5,0,1,0,1.5,0.1c0,0,0,0,0,0
		c1.1-0.1,2.1-0.2,3.2-0.2c12.5,0,25,0.1,37.5-0.1c1.7,0,3.4-1.7,5.1-2.5c-0.7-2.1-1.3-4.7-2.3-6.6c-1.9-3.1-4.1-6-6.3-8.5
		c-2.8-3.1-3.8-6.7-3.7-11.5c0.2-13.4,0.1-26.6,0.1-40c0-6.1-1-12.3-5.2-14.9c-0.6-0.4-1.1-0.8-1.6-1.3c-0.3-0.2-0.7-0.5-1-0.7
		c-0.2-0.1-0.4-0.3-0.6-0.4c-0.1,0-0.3-0.1-0.4-0.1c-0.2-0.1-0.4-0.1-0.6-0.2c-0.7-0.1-1.5-0.3-2.2-0.5c-0.6,0-1.3-0.1-1.9-0.2
		c-0.6,0.1-1.1,0.1-1.7,0.1c-0.5,0-0.9,0-1.4-0.1H28.4C16.9,91.3,12.7,97.1,12.7,112.2z M18.7,109.5c0-7.5,2.3-10.4,8-10.4h120.1
		c6.2,0,8.3,2.9,8.3,11.3c0.1,10.7,0.3,21.5-0.1,32.2c-0.4,10.1-0.4,19.9,7,26.4c0.1,0.2,0.1,0.5,0.3,1.3c-0.8,0.1-1.4,0.4-2,0.4
		c-44.9,0-89.6,0-134.5-0.1c-4.9,0-7-3.1-7-9.8C18.7,143.7,18.7,126.5,18.7,109.5z"/>
	<path class="st0" d="M101.7,143.8c-1.4,0.5-2.9,1.3-4.3,1.3c-1.3,0-2.7-0.8-3.7-1.7c-1.3-1.3-2-4.1-3.3-4.4
		c-3.2-0.7-6.7-0.6-9.9-0.1c-1.2,0.2-2,2.7-3.2,3.8s-2.8,1.7-4.2,2.5c-0.6-1.7-2-3.6-1.6-4.9c3.1-9,6.5-17.8,10-26.6
		c0.5-1.3,2.2-2.7,3.5-2.9c1.3-0.1,3.4,1.1,3.9,2.2c3.8,9.2,7.2,18.6,10.8,27.9c0.1,0.3,0.1,0.7,0.2,1
		C100.4,142.6,101,143.2,101.7,143.8z M88.9,131.6c-1.2-3.1-2.2-5.7-3.6-9.6c-1.5,3.8-2.5,6.5-3.7,9.6
		C84.3,131.6,86.3,131.6,88.9,131.6z"/>
	<path class="st0" d="M137.7,131.8c0,2.2,0,4.3,0,7.1c2.7,0,5.3-0.4,7.6,0.1c1.4,0.3,2.5,1.9,3.8,3c-1.2,1.1-2.3,3-3.6,3.2
		c-3.6,0.4-7.4,0.6-10.9,0c-1.5-0.2-3.6-2.6-3.6-4.1c-0.3-8.8-0.1-17.6-0.1-26.4c0-0.3-0.1-0.8,0.1-1c1.6-1.1,3.3-3,4.9-2.9
		c4.4,0.4,9.4-2.4,12.9,2.1c0.3,0.4-1.4,3.2-2.8,4c-1.3,0.7-3.2,0.3-4.9,0.2c-2.9-0.2-3.8,1-3.8,3.8c0,2.6,0.6,4,3.6,3.9
		c2.7,0,7.1-1.4,7.2,3c0.1,4.8-4.5,3-7.3,3.5C139.9,131.4,139,131.6,137.7,131.8z"/>
	<path class="st0" d="M53.7,124.8c2.6,0,5-0.3,7.2,0.1c1.3,0.3,2.3,1.8,3.5,2.8c-1.2,1.2-2.1,3-3.5,3.4c-2.1,0.6-4.5,0.2-7.1,0.2
		c0,2.8,0,4.9,0,7.7c2.7,0,5.2-0.4,7.6,0.1c1.4,0.3,2.5,1.9,3.8,3c-1.2,1.1-2.3,3-3.6,3.2c-3.6,0.4-7.4,0.6-10.9,0
		c-1.4-0.2-3.5-2.6-3.6-4.1c-0.3-8.6-0.2-17.3-0.1-26c0-0.3-0.1-0.8,0.1-1c1.5-1.2,3.1-3.4,4.5-3.3c4.5,0.4,9.7-2.5,13.4,2.1
		c0.2,0.3-1.9,3.5-3.4,3.9c-2.3,0.7-4.9,0.2-7.7,0.2C53.7,119.8,53.7,122,53.7,124.8z"/>
	<path class="st0" d="M112.7,131.5c1.9-5.7,3.5-11.5,5.7-17c0.7-1.6,3.1-2.5,4.7-3.8c0.5,1.9,1.8,3.9,1.3,5.5
		c-2.5,8.4-5.3,16.8-8.3,25.1c-0.6,1.6-2.7,3.9-3.8,3.8c-1.6-0.3-3.7-2.1-4.3-3.8c-3.1-8.2-6-16.5-8.6-25c-0.5-1.6,0.7-3.7,1.1-5.6
		c1.7,1.2,4.1,2,4.8,3.6c2.4,5.6,4.2,11.4,6.2,17.2C111.9,131.6,112.3,131.6,112.7,131.5z"/>
	<path class="st0" d="M31.1,139c2.6,0,4.6-0.4,6.2,0.1c1.4,0.5,2.4,2.1,3.6,3.2c-1.1,1.1-2.1,2.9-3.3,3c-3.1,0.4-6.4,0.6-9.4,0
		c-1.5-0.3-3.5-2.7-3.5-4.3c-0.3-8.8-0.3-17.6,0-26.4c0-1.4,2.1-2.7,3.2-4.1c1.1,1.4,3,2.8,3.1,4.2C31.3,122.6,31.1,130.4,31.1,139z
		"/>
	<path class="st0" d="M114.9,28.4c-0.2-9.8-7.6-17-17.4-17.1c-23.3-0.2-46.7-0.2-70,0c-10.1,0-17.4,7.5-17.4,17.5
		c-0.1,44.3-0.1,88.7,0,133c0,9.8,7.3,17.2,17.1,17.3c23.5,0.2,47,0.2,70.5,0c5.1-0.1,9.5-1.9,12.5-5.4c-0.2,0-0.3,0-0.5-0.1
		c-0.9-0.2-1.6-0.4-2.3-0.5c-0.7,0-1.4-0.1-2.1-0.2c-1.4-0.2-2.7-0.5-3.9-1.1c-1.2,0.4-2.6,0.6-4.3,0.6c-11.3,0.2-22.7,0.1-34,0.1
		c-11.7,0-23.3,0-35-0.1c-6.9-0.1-11.1-4.1-11.2-10.8c-0.2-16.9-0.1-33.7-0.1-50.5c-3.1-4.8-1-11.9,5.4-14.5
		c5.8-2.3,13.8-0.9,19.9-1c4.9,0,9.8-0.3,14.7-0.4c-3.8-0.3-7.6-0.1-11.8-0.1V81.9c0-0.3,0.1-0.7,0.2-1c2.1-8.1,9.2-11.5,21.6-10.4
		c7.6,0.7,12.9,6.1,13.3,13.7c0.2,4.3,0.6,8-4.6,10.5c1.2-0.3,2.5-0.4,3.8-0.4c1.2,0,2.3,0.1,3.4,0.3c1.3-0.3,2.5-0.5,3.8-0.7
		c1-0.8,2.1-1.5,3.2-2h-2.3c-3.3-23.3-7.9-28.1-26.3-28.1c-6-0.1-11.4,1.3-16.1,5.4c-7.9,7-7,16.4-7,25.7H17
		c-0.1-1.5-0.3-2.7-0.3-3.8c0-20.2-0.1-40.3,0-60.5c0.1-8.9,3.9-12.7,12.9-12.7h65.5c9.4,0.1,13.1,3.7,13.1,13
		c0.1,16.2,0,32.3,0.2,48.5c0.1,1.6,2,3.3,3,4.9c1.2-1.6,3.4-3.2,3.4-4.9C115.1,62.4,115.2,45.4,114.9,28.4z"/>
	<path class="st0" d="M62.3,32.2c12.2-0.1,14,1.2,14,10c0,11.1-5,17.6-13.6,17.7c-8.4,0.1-14-6.4-14-16.4
		C48.7,33.3,49.9,32.3,62.3,32.2z M55.5,39.3c0.2,4.8-1.8,9.9,3.4,12.7c1.9,1,5.4,1,7.3-0.1c5-2.9,3.4-7.9,3.2-12.7
		C64.7,39.3,60.4,39.3,55.5,39.3z"/>
</g>
<path class="st0" d="M294-181.8c0-1,0-1.7,0-2.3c0-7.3,0-14.6,0-21.9c0.1-9.9,7.4-18,16.8-18.8c10.5-0.9,19.2,5.5,21.1,15.5
	c0.2,1.3,0.2,2.7,0.3,4.1c0,7,0,14.1,0,21.1c0,0.7,0,1.4,0,2.4c0.9,0,1.7,0,2.4,0c18.9,0,37.9,0.2,56.8-0.1
	c6.7-0.1,11.9,4.6,11.8,11.7c-0.2,20.8-0.1,41.6-0.1,62.4c0,2.1,0.6,3.6,2,5.1c11.7,12.8,14.3,31.5,6.5,46.9
	c-13.7,27.5-51.1,31.5-70.3,7.7c-0.9-1.1-1.8-1.5-3.2-1.5c-34.4,0-68.8-0.1-103.1,0.1c-6.4,0-11.8-4.3-11.7-11.8
	c0.2-36.4,0.1-72.9,0.1-109.3c0-5.7,3-9.8,8.2-10.9c0.9-0.2,1.9-0.2,2.9-0.2c19.1,0,38.1,0,57.2,0C292.3-181.8,293-181.8,294-181.8z
	 M397.6-109.7c0-0.8,0-1.4,0-2.1c0-19.5,0-39,0-58.5c0-4.1-1.5-5.6-5.6-5.6c-19.1,0-38.3,0-57.4,0c-0.7,0-1.4,0-2.2,0
	c0,3.9,0,7.5,0,11.1c0,2.1-1,3.2-3,3.2c-10.7,0-21.5,0-32.2,0c-2,0-2.9-1-3-3.1c-0.1-3,0-6.1,0-9.1c0-0.7-0.1-1.4-0.1-2.1
	c-0.9,0-1.6,0-2.3,0c-19,0-38,0-57,0c-4.2,0-5.7,1.5-5.7,5.7c0,36.3,0,72.6-0.1,108.9c0,4.1,1.9,6.2,6.3,6.2c33.2,0,66.4,0,99.6,0
	c0.5,0,1.1-0.1,1.6-0.1c-7.8-18.3-5.9-35.2,8.4-49C360.6-119.3,378.6-119.9,397.6-109.7z M410.1-74.4c0-19.8-16.3-36.2-36.1-36.2
	c-19.9,0-36.3,16.3-36.2,36.3c0,19.8,16.4,36.1,36.2,36.1C393.8-38.2,410.1-54.6,410.1-74.4z M326.2-167.6c0.1-0.4,0.1-0.7,0.1-1
	c0-12.7,0.1-25.4-0.1-38.1c0-1.9-0.7-3.8-1.5-5.5c-2.7-5.3-8.8-8-14.6-6.6c-6,1.5-10.3,6.7-10.3,12.9c-0.1,12.4,0,24.8,0,37.2
	c0,0.4,0.1,0.7,0.1,1.1C308.7-167.6,317.4-167.6,326.2-167.6z"/>
<path class="st0" d="M-272.5,134.3c0,6.4,0,12.4,0,18.7c0.9,0,1.7,0,2.6,0c24.9,0,49.9,0,74.8,0c0.9,0,1.8,0,2.7,0.2
	c1.5,0.4,2,1.6,1.9,3c-0.1,1.3-0.8,2.3-2.3,2.5c-0.6,0.1-1.3,0.1-1.9,0.1c-26.4,0-52.9,0-79.3,0c-3.8,0-4.4-0.6-4.4-4.3
	c0-7.4,0-14.7,0-22.1c0-3,0.9-3.9,3.9-3.9c26.9,0,53.9,0,80.8,0c2.4,0,3.5,0.8,3.7,2.5c0.2,2-1,3.3-3.1,3.3c-5,0-10.1,0-15.1,0
	c-20.7,0-41.5,0-62.2,0C-271,134.3-271.7,134.3-272.5,134.3z"/>
<path class="st0" d="M-172,92.3c11.1,0,22.2,0,33.3,0c0.6,0,1.5-0.2,1.9,0.1c0.9,0.6,1.9,1.4,2.2,2.3c0.5,1.3-0.1,2.6-1.5,3.1
	c-0.7,0.3-1.5,0.3-2.3,0.3c-22.4,0-44.8,0-67.2,0c-0.5,0-1,0-1.5-0.1c-1.6-0.4-2.4-1.4-2.3-3.1c0.1-1.6,1-2.5,2.6-2.6
	c0.6-0.1,1.2,0,1.7,0C-194.1,92.3-183,92.3-172,92.3z"/>
<path class="st0" d="M-171.8,78.9c-11.2,0-22.4,0-33.5,0c-0.6,0-1.2,0.1-1.7-0.1c-1.5-0.3-2.3-1.3-2.3-2.9s0.9-2.5,2.4-2.8
	c0.4-0.1,0.9,0,1.4,0c22.5,0,45,0,67.5,0c0.3,0,0.5,0,0.8,0c2,0.1,3,1.2,3,3c-0.1,1.8-1.1,2.8-3,2.8c-4.8,0-9.7,0-14.5,0
	C-158.6,78.9-165.2,78.9-171.8,78.9z"/>
<path class="st0" d="M-194.1,117.7c-4,0-8,0-12,0c-2.2,0-3.3-1-3.3-2.9s1.1-2.9,3.3-2.9c8,0,16,0,24,0c2.1,0,3.6,1.3,3.6,3
	c0,1.8-1.2,2.8-3.6,2.8C-186.1,117.7-190.1,117.7-194.1,117.7z"/>
<path class="st0" d="M-256.7,140.8c1.9,0,3.7,0,5.6,0c1.9,0,3,1,3,2.8c0.1,1.7-1,3-2.8,3c-3.9,0.1-7.8,0.1-11.6,0
	c-1.8,0-2.9-1.4-2.8-3.1c0.1-1.6,1.1-2.6,2.9-2.7C-260.4,140.8-258.5,140.8-256.7,140.8z"/>
<path class="st0" d="M-231.9,140.8c1.9,0,3.9,0,5.8,0c1.8,0.1,2.8,1.1,2.8,2.8s-0.9,3-2.6,3c-4,0.1-8,0.1-12,0
	c-1.7,0-2.7-1.4-2.6-3.1c0.2-1.6,1-2.6,2.7-2.7C-235.7,140.8-233.8,140.8-231.9,140.8z"/>
<path class="st0" d="M-207,140.8c1.9,0,3.7,0,5.6,0c1.9,0.1,2.9,1.1,3,2.8c0,1.7-1,2.9-2.9,3c-3.8,0.1-7.6,0.1-11.4,0
	c-1.8,0-2.9-1.3-2.9-3s1.1-2.8,3-2.8C-210.7,140.8-208.8,140.8-207,140.8z"/>
<g>
	<path class="st0" d="M-24.2,439.7c-3.6-0.7-7.3-0.8-11.7-1.2c20.4-10.4,24.6-29.1,21.3-42.3c-3.9-15.4-16.8-26.6-32.2-27.7
		c-16.7-1.2-31.4,7.8-37.2,22.8c-3.5,9.1-3.5,18.2,0.2,27.2c3.7,9.1,10.4,15.4,19,20c-1.4,0.4-2.6,0.3-3.8,0.4
		c-20.1,0.7-36.4,13.6-40.5,32.6c-1.2,5.6-1,11.6-1.1,17.4c-0.2,6.9,1.4,8.4,8.2,8.4h56.8c0.4-4,1.3-7.8,2.7-11.4h-55.8
		c-3.8-16,8.8-34.2,25.4-35.2c14.8-0.9,29.8-0.9,44.6,0c6.8,0.4,13,3.6,17.5,8.5c2.7-0.5,5.6-0.8,8.5-0.8c1.9,0,3.8,0.1,5.6,0.4
		C-2.5,449.1-12.1,442.2-24.2,439.7z M-50.7,429.9c-13.9-0.1-25.3-11.7-25.1-25.5c0.2-13.9,11.3-24.8,25.3-24.8s25.2,11.2,25.2,25.2
		C-25.4,418.9-36.7,430-50.7,429.9z"/>
	<path class="st0" d="M1.3,501.8c5,5,9.9,9.8,14.7,14.7c0.7,0.8,1.4,2.2,1.2,3.2c-0.3,2.3-3.1,2.9-5,1.1c-3.3-3.2-6.5-6.5-9.7-9.7
		c-1.7-1.7-3.3-3.4-5.1-5.3c-0.6,0.6-1.1,1-1.6,1.5c-4.4,4.4-8.8,8.8-13.2,13.2c-1.7,1.7-3.2,1.9-4.6,0.6c-1.4-1.3-1.2-2.9,0.5-4.7
		c4.4-4.4,8.8-8.8,13.2-13.2c0.4-0.4,0.9-0.9,1.4-1.5c-2.4-2.4-4.8-4.8-7.2-7.1c-2.6-2.6-5.1-5.1-7.7-7.7c-1.5-1.5-1.6-3.2-0.2-4.4
		c1.3-1.2,2.8-1.1,4.3,0.3c4.5,4.4,8.9,8.9,13.3,13.3c0.5,0.5,1,1,1.7,1.6c2.9-2.9,5.8-5.8,8.6-8.7c1.9-1.9,3.8-3.8,5.8-5.8
		c1.9-1.9,3.4-2.1,4.8-0.7c1.4,1.4,1.1,2.9-0.8,4.8C10.9,492.1,6.2,496.9,1.3,501.8z"/>
	<circle class="st1" cx="-2.8" cy="501.8" r="43.3"/>
</g>
</svg>
