<?xml version="1.0" encoding="utf-8"?>
<!-- Generator: Adobe Illustrator 23.0.5, SVG Export Plug-In . SVG Version: 6.00 Build 0)  -->
<svg version="1.1" id="Layer_1_1_" xmlns="http://www.w3.org/2000/svg" xmlns:xlink="http://www.w3.org/1999/xlink" x="0px" y="0px"
	 viewBox="0 0 162 188" style="enable-background:new 0 0 162 188;" xml:space="preserve">
<style type="text/css">
	.st0{fill:#FFFFFF;}
	.st1{fill:none;stroke:#FFFFFF;stroke-width:10;stroke-miterlimit:10;}
</style>
<path class="st0" d="M-147-619.7c23.8,0,43.5-17.3,47.3-40h93.4l-10.3,10.3L-5.3-638l29.7-29.7l-29.7-29.7L-16.7-686l10.3,10.3
	h-93.4c-3.8-22.7-23.5-40-47.3-40c-26.5,0-48,21.5-48,48S-173.5-619.7-147-619.7z"/>
<path class="st0" d="M177-675.7h-52.7c-3.8-22.7-23.5-40-47.3-40c-26.5,0-48,21.5-48,48s21.5,48,48,48c23.8,0,43.5-17.3,47.3-40H177
	c46.3,0,84,37.7,84,84s-37.7,84-84,84H48.3L58.7-502l-11.3-11.3l-29.7,29.7L47.3-454l11.3-11.3l-10.3-10.3H177
	c55.1,0,100-44.9,100-100C277-630.8,232.1-675.7,177-675.7z"/>
<circle class="st0" cx="221" cy="-299.7" r="48"/>
<path class="st0" d="M-3-347.7c-26.5,0-48,21.5-48,48s21.5,48,48,48c23.8,0,43.5-17.3,47.3-40h93.4l-10.3,10.3l11.3,11.3l29.7-29.7
	l-29.7-29.7L127.3-318l10.3,10.3H44.3C40.5-330.4,20.8-347.7-3-347.7L-3-347.7z"/>
<path class="st0" d="M-103-291.7h16.7l-10.3,10.3l11.3,11.3l29.7-29.7l-29.7-29.7L-96.7-318l10.3,10.3H-103c-46.3,0-84-37.7-84-84
	s37.7-84,84-84h20.7c3.8,22.7,23.5,40,47.3,40c26.5,0,48-21.5,48-48s-21.5-48-48-48c-23.8,0-43.5,17.3-47.3,40H-103
	c-55.1,0-100,44.9-100,100S-158.1-291.7-103-291.7L-103-291.7z"/>
<g>
	<path class="st0" d="M483.7,101.1c0-9.3-0.9-18.7,7-25.7c4.7-4.1,10.1-5.5,16.1-5.4c18.4,0,23,4.8,26.3,28.1c2.3,0,4.7,0,7.2,0
		c40.7,0,81.3,0,122,0c12.7,0,17.4,4.8,17.4,17.5c0,13.5,0,27,0,40.5c0,9.6-5.6,15.2-15.3,15.2c-33.2,0.1-66.3,0.1-99.5,0
		c-3.2,0-4.9,0.6-6.3,3.9c-2.7,6.7-8.3,10-15.3,10.1c-23.5,0.2-47,0.2-70.5,0c-9.8-0.1-17.1-7.5-17.1-17.3c-0.1-44.3-0.1-88.7,0-133
		c0-10,7.3-17.5,17.4-17.5c23.3-0.2,46.7-0.2,70,0c9.8,0.1,17.2,7.3,17.4,17.1c0.3,17,0.2,34-0.1,51c0,1.7-2.2,3.3-3.4,4.9
		c-1-1.6-2.9-3.3-3-4.9c-0.2-16.2-0.1-32.3-0.2-48.5c0-9.3-3.7-12.9-13.1-13c-21.8,0-43.7,0-65.5,0c-9,0-12.8,3.8-12.9,12.7
		c-0.1,20.2,0,40.3,0,60.5c0,1.1,0.2,2.3,0.3,3.8C469.5,101.1,476.2,101.1,483.7,101.1z M514,164.3c0.9,0.1,1.6,0.3,2.2,0.3
		c49.7,0,99.3,0,149-0.1c5.4,0,7.8-2.6,7.8-8.2c0.1-14.3,0.1-28.7,0-43c0-6.3-2.5-8.7-8.9-8.7c-44.3,0-88.6,0-133,0
		c-6.9,0-9.2,2.4-9.2,9.5c-0.1,9-0.3,18,0.1,27c0.4,8.5,0.4,16.7-7.7,22.1C514.2,163.4,514.2,163.6,514,164.3z M462.9,108.3
		c-0.3,1.2-0.5,1.7-0.5,2.1c0,19.2-0.1,38.3,0.1,57.5c0.1,6.7,4.3,10.7,11.2,10.8c11.7,0.1,23.3,0.1,35,0.1c11.3,0,22.7,0.1,34-0.1
		c5.8-0.1,8.6-2.3,9.6-7.1c-1.2-0.1-2.3-0.2-3.5-0.2c-13.8,0-27.7,0.1-41.5-0.1c-1.9,0-3.8-1.4-5.6-2.1c0.8-1.8,1.4-3.9,2.6-5.5
		c2.1-2.6,4.5-5,7-7.1c3.1-2.6,4.2-5.6,4.1-9.6c-0.2-11.2-0.1-22.3-0.1-33.5c0-5.1,1.1-10.3,5.8-12.5c5.3-2.5,4.9-6.3,4.7-10.6
		c-0.4-7.6-5.7-13-13.3-13.7c-12.4-1.1-19.5,2.3-21.6,10.4c-0.1,0.3-0.2,0.7-0.2,1c0,4.3,0,8.5,0,13.4c4.7,0,9-0.3,13.3,0.2
		c1.3,0.1,2.5,2,3.8,3.1c-1.2,1.1-2.3,2.6-3.7,3.3c-1.3,0.6-2.9,0.2-4.4,0.2C487.5,108.3,475.3,108.3,462.9,108.3z"/>
	<path class="st0" d="M507.9,38.4c12.2-0.1,14,1.2,14,10c0,11.1-5,17.6-13.6,17.7c-8.4,0.1-14-6.4-14-16.4
		C494.3,39.5,495.5,38.5,507.9,38.4z M501.1,45.5c0.2,4.8-1.8,9.9,3.4,12.7c1.9,1,5.4,1,7.3-0.1c5-2.9,3.4-7.9,3.2-12.7
		C510.3,45.5,506,45.5,501.1,45.5z"/>
	<path class="st0" d="M613.6,150.2c-1.4,0.5-2.9,1.3-4.3,1.3c-1.3,0-2.7-0.8-3.7-1.7c-1.3-1.3-2-4.1-3.3-4.4
		c-3.2-0.7-6.7-0.6-9.9-0.1c-1.2,0.2-2,2.7-3.2,3.8c-1.2,1.1-2.8,1.7-4.2,2.5c-0.6-1.7-2-3.6-1.6-4.9c3.1-9,6.5-17.8,10-26.6
		c0.5-1.3,2.2-2.7,3.5-2.9c1.3-0.1,3.4,1.1,3.9,2.2c3.8,9.2,7.2,18.6,10.8,27.9c0.1,0.3,0.1,0.7,0.2,1
		C612.3,149,612.9,149.6,613.6,150.2z M600.8,138c-1.2-3.1-2.2-5.7-3.6-9.6c-1.5,3.8-2.5,6.5-3.7,9.6C596.2,138,598.2,138,600.8,138
		z"/>
	<path class="st0" d="M649.6,138.2c0,2.2,0,4.3,0,7.1c2.7,0,5.3-0.4,7.6,0.1c1.4,0.3,2.5,1.9,3.8,3c-1.2,1.1-2.3,3-3.6,3.2
		c-3.6,0.4-7.4,0.6-10.9,0c-1.5-0.2-3.6-2.6-3.6-4.1c-0.3-8.8-0.1-17.6-0.1-26.4c0-0.3-0.1-0.8,0.1-1c1.6-1.1,3.3-3,4.9-2.9
		c4.4,0.4,9.4-2.4,12.9,2.1c0.3,0.4-1.4,3.2-2.8,4c-1.3,0.7-3.2,0.3-4.9,0.2c-2.9-0.2-3.8,1-3.8,3.8c0,2.6,0.6,4,3.6,3.9
		c2.7,0,7.1-1.4,7.2,3c0.1,4.8-4.5,3-7.3,3.5C651.8,137.8,650.9,138,649.6,138.2z"/>
	<path class="st0" d="M565.6,131.2c2.6,0,5-0.3,7.2,0.1c1.3,0.3,2.3,1.8,3.5,2.8c-1.2,1.2-2.1,3-3.5,3.4c-2.1,0.6-4.5,0.2-7.1,0.2
		c0,2.8,0,4.9,0,7.7c2.7,0,5.2-0.4,7.6,0.1c1.4,0.3,2.5,1.9,3.8,3c-1.2,1.1-2.3,3-3.6,3.2c-3.6,0.4-7.4,0.6-10.9,0
		c-1.4-0.2-3.5-2.6-3.6-4.1c-0.3-8.6-0.2-17.3-0.1-26c0-0.3-0.1-0.8,0.1-1c1.5-1.2,3.1-3.4,4.5-3.3c4.5,0.4,9.7-2.5,13.4,2.1
		c0.2,0.3-1.9,3.5-3.4,3.9c-2.3,0.7-4.9,0.2-7.7,0.2C565.6,126.2,565.6,128.4,565.6,131.2z"/>
	<path class="st0" d="M624.6,137.9c1.9-5.7,3.5-11.5,5.7-17c0.7-1.6,3.1-2.5,4.7-3.8c0.5,1.9,1.8,3.9,1.3,5.5
		c-2.5,8.4-5.3,16.8-8.3,25.1c-0.6,1.6-2.7,3.9-3.8,3.8c-1.6-0.3-3.7-2.1-4.3-3.8c-3.1-8.2-6-16.5-8.6-25c-0.5-1.6,0.7-3.7,1.1-5.6
		c1.7,1.2,4.1,2,4.8,3.6c2.4,5.6,4.2,11.4,6.2,17.2C623.8,138,624.2,138,624.6,137.9z"/>
	<path class="st0" d="M543,145.4c2.6,0,4.6-0.4,6.2,0.1c1.4,0.5,2.4,2.1,3.6,3.2c-1.1,1.1-2.1,2.9-3.3,3c-3.1,0.4-6.4,0.6-9.4,0
		c-1.5-0.3-3.5-2.7-3.5-4.3c-0.3-8.8-0.3-17.6,0-26.4c0-1.4,2.1-2.7,3.2-4.1c1.1,1.4,3,2.8,3.1,4.2C543.2,129,543,136.8,543,145.4z"
		/>
	<path class="st0" d="M490.8,126.1c4.3,0,8.7-0.3,12.9,0.2c1.4,0.1,2.7,2.2,4,3.3c-1.3,1-2.5,2.9-3.8,3c-8.8,0.3-17.6,0.3-26.4,0
		c-1.4,0-2.7-2.1-4-3.3c1.4-1,2.8-2.8,4.4-3C482.1,125.9,486.5,126.2,490.8,126.1C490.8,126.1,490.8,126.1,490.8,126.1z"/>
	<path class="st0" d="M490.4,146.7c-4.3,0-8.7,0.3-12.9-0.2c-1.4-0.1-2.7-2.1-4-3.3c1.3-1,2.5-2.9,3.9-2.9c8.8-0.3,17.6-0.3,26.4,0
		c1.4,0,2.7,2.2,4,3.3c-1.5,1-2.8,2.8-4.4,3C499.1,147,494.7,146.7,490.4,146.7z"/>
	<path class="st0" d="M485.2,160.7c-2.7,0-5.4,0.3-7.9-0.1c-1.4-0.3-2.6-1.9-3.9-2.9c1.2-1.2,2.3-3.2,3.5-3.3
		c5.6-0.3,11.3-0.3,16.9,0c1.2,0.1,2.3,1.9,3.4,2.9c-1.2,1.1-2.2,3-3.5,3.3C491,161.1,488.1,160.7,485.2,160.7
		C485.2,160.7,485.2,160.7,485.2,160.7z"/>
</g>
<path class="st0" d="M294-181.8c0-1,0-1.7,0-2.3c0-7.3,0-14.6,0-21.9c0.1-9.9,7.4-18,16.8-18.8c10.5-0.9,19.2,5.5,21.1,15.5
	c0.2,1.3,0.2,2.7,0.3,4.1c0,7,0,14.1,0,21.1c0,0.7,0,1.4,0,2.4c0.9,0,1.7,0,2.4,0c18.9,0,37.9,0.2,56.8-0.1
	c6.7-0.1,11.9,4.6,11.8,11.7c-0.2,20.8-0.1,41.6-0.1,62.4c0,2.1,0.6,3.6,2,5.1c11.7,12.8,14.3,31.5,6.5,46.9
	c-13.7,27.5-51.1,31.5-70.3,7.7c-0.9-1.1-1.8-1.5-3.2-1.5c-34.4,0-68.8-0.1-103.1,0.1c-6.4,0-11.8-4.3-11.7-11.8
	c0.2-36.4,0.1-72.9,0.1-109.3c0-5.7,3-9.8,8.2-10.9c0.9-0.2,1.9-0.2,2.9-0.2c19.1,0,38.1,0,57.2,0C292.3-181.8,293-181.8,294-181.8z
	 M397.6-109.7c0-0.8,0-1.4,0-2.1c0-19.5,0-39,0-58.5c0-4.1-1.5-5.6-5.6-5.6c-19.1,0-38.3,0-57.4,0c-0.7,0-1.4,0-2.2,0
	c0,3.9,0,7.5,0,11.1c0,2.1-1,3.2-3,3.2c-10.7,0-21.5,0-32.2,0c-2,0-2.9-1-3-3.1c-0.1-3,0-6.1,0-9.1c0-0.7-0.1-1.4-0.1-2.1
	c-0.9,0-1.6,0-2.3,0c-19,0-38,0-57,0c-4.2,0-5.7,1.5-5.7,5.7c0,36.3,0,72.6-0.1,108.9c0,4.1,1.9,6.2,6.3,6.2c33.2,0,66.4,0,99.6,0
	c0.5,0,1.1-0.1,1.6-0.1c-7.8-18.3-5.9-35.2,8.4-49C360.6-119.3,378.6-119.9,397.6-109.7z M410.1-74.4c0-19.8-16.3-36.2-36.1-36.2
	c-19.9,0-36.3,16.3-36.2,36.3c0,19.8,16.4,36.1,36.2,36.1C393.8-38.2,410.1-54.6,410.1-74.4z M326.2-167.6c0.1-0.4,0.1-0.7,0.1-1
	c0-12.7,0.1-25.4-0.1-38.1c0-1.9-0.7-3.8-1.5-5.5c-2.7-5.3-8.8-8-14.6-6.6c-6,1.5-10.3,6.7-10.3,12.9c-0.1,12.4,0,24.8,0,37.2
	c0,0.4,0.1,0.7,0.1,1.1C308.7-167.6,317.4-167.6,326.2-167.6z"/>
<path class="st0" d="M-272.5,134.3c0,6.4,0,12.4,0,18.7c0.9,0,1.7,0,2.6,0c24.9,0,49.9,0,74.8,0c0.9,0,1.8,0,2.7,0.2
	c1.5,0.4,2,1.6,1.9,3c-0.1,1.3-0.8,2.3-2.3,2.5c-0.6,0.1-1.3,0.1-1.9,0.1c-26.4,0-52.9,0-79.3,0c-3.8,0-4.4-0.6-4.4-4.3
	c0-7.4,0-14.7,0-22.1c0-3,0.9-3.9,3.9-3.9c26.9,0,53.9,0,80.8,0c2.4,0,3.5,0.8,3.7,2.5c0.2,2-1,3.3-3.1,3.3c-5,0-10.1,0-15.1,0
	c-20.7,0-41.5,0-62.2,0C-271,134.3-271.7,134.3-272.5,134.3z"/>
<path class="st0" d="M-172,92.3c11.1,0,22.2,0,33.3,0c0.6,0,1.5-0.2,1.9,0.1c0.9,0.6,1.9,1.4,2.2,2.3c0.5,1.3-0.1,2.6-1.5,3.1
	c-0.7,0.3-1.5,0.3-2.3,0.3c-22.4,0-44.8,0-67.2,0c-0.5,0-1,0-1.5-0.1c-1.6-0.4-2.4-1.4-2.3-3.1c0.1-1.6,1-2.5,2.6-2.6
	c0.6-0.1,1.2,0,1.7,0C-194.1,92.3-183,92.3-172,92.3z"/>
<path class="st0" d="M-171.8,78.9c-11.2,0-22.4,0-33.5,0c-0.6,0-1.2,0.1-1.7-0.1c-1.5-0.3-2.3-1.3-2.3-2.9c0-1.6,0.9-2.5,2.4-2.8
	c0.4-0.1,0.9,0,1.4,0c22.5,0,45,0,67.5,0c0.3,0,0.5,0,0.8,0c2,0.1,3,1.2,3,3c-0.1,1.8-1.1,2.8-3,2.8c-4.8,0-9.7,0-14.5,0
	C-158.6,78.9-165.2,78.9-171.8,78.9z"/>
<path class="st0" d="M-194.1,117.7c-4,0-8,0-12,0c-2.2,0-3.3-1-3.3-2.9c0-1.9,1.1-2.9,3.3-2.9c8,0,16,0,24,0c2.1,0,3.6,1.3,3.6,3
	c0,1.8-1.2,2.8-3.6,2.8C-186.1,117.7-190.1,117.7-194.1,117.7z"/>
<path class="st0" d="M-256.7,140.8c1.9,0,3.7,0,5.6,0c1.9,0,3,1,3,2.8c0.1,1.7-1,3-2.8,3c-3.9,0.1-7.8,0.1-11.6,0
	c-1.8,0-2.9-1.4-2.8-3.1c0.1-1.6,1.1-2.6,2.9-2.7C-260.4,140.8-258.5,140.8-256.7,140.8z"/>
<path class="st0" d="M-231.9,140.8c1.9,0,3.9,0,5.8,0c1.8,0.1,2.8,1.1,2.8,2.8c0,1.7-0.9,3-2.6,3c-4,0.1-8,0.1-12,0
	c-1.7,0-2.7-1.4-2.6-3.1c0.2-1.6,1-2.6,2.7-2.7C-235.7,140.8-233.8,140.8-231.9,140.8z"/>
<path class="st0" d="M-207,140.8c1.9,0,3.7,0,5.6,0c1.9,0.1,2.9,1.1,3,2.8c0,1.7-1,2.9-2.9,3c-3.8,0.1-7.6,0.1-11.4,0
	c-1.8,0-2.9-1.3-2.9-3c0-1.7,1.1-2.8,3-2.8C-210.7,140.8-208.8,140.8-207,140.8z"/>
<g>
	<path class="st0" d="M92.1,75.2c-3.6-0.7-7.3-0.8-11.7-1.2c20.4-10.4,24.6-29.1,21.3-42.3C97.8,16.3,84.9,5.1,69.5,4
		c-16.7-1.2-31.4,7.8-37.2,22.8c-3.5,9.1-3.5,18.2,0.2,27.2c3.7,9.1,10.4,15.4,19,20c-1.4,0.4-2.6,0.3-3.8,0.4
		c-20.1,0.7-36.4,13.6-40.5,32.6c-1.2,5.6-1,11.6-1.1,17.4c-0.2,6.9,1.4,8.4,8.2,8.4h56.8c0.4-4,1.3-7.8,2.7-11.4H18
		c-3.8-16,8.8-34.2,25.4-35.2c14.8-0.9,29.8-0.9,44.6,0c6.8,0.4,13,3.6,17.5,8.5c2.7-0.5,5.6-0.8,8.5-0.8c1.9,0,3.8,0.1,5.6,0.4
		C113.8,84.6,104.2,77.7,92.1,75.2z M65.6,65.4c-13.9-0.1-25.3-11.7-25.1-25.5c0.2-13.9,11.3-24.8,25.3-24.8
		C79.8,15.1,91,26.3,91,40.3C90.9,54.4,79.6,65.5,65.6,65.4z"/>
	<path class="st0" d="M117.6,137.3c5,5,9.9,9.8,14.7,14.7c0.7,0.8,1.4,2.2,1.2,3.2c-0.3,2.3-3.1,2.9-5,1.1c-3.3-3.2-6.5-6.5-9.7-9.7
		c-1.7-1.7-3.3-3.4-5.1-5.3c-0.6,0.6-1.1,1-1.6,1.5c-4.4,4.4-8.8,8.8-13.2,13.2c-1.7,1.7-3.2,1.9-4.6,0.6c-1.4-1.3-1.2-2.9,0.5-4.7
		c4.4-4.4,8.8-8.8,13.2-13.2c0.4-0.4,0.9-0.9,1.4-1.5c-2.4-2.4-4.8-4.8-7.2-7.1c-2.6-2.6-5.1-5.1-7.7-7.7c-1.5-1.5-1.6-3.2-0.2-4.4
		c1.3-1.2,2.8-1.1,4.3,0.3c4.5,4.4,8.9,8.9,13.3,13.3c0.5,0.5,1,1,1.7,1.6c2.9-2.9,5.8-5.8,8.6-8.7c1.9-1.9,3.8-3.8,5.8-5.8
		c1.9-1.9,3.4-2.1,4.8-0.7c1.4,1.4,1.1,2.9-0.8,4.8C127.2,127.6,122.5,132.4,117.6,137.3z"/>
	<circle class="st1" cx="113.5" cy="137.3" r="43.3"/>
</g>
</svg>
