<?xml version="1.0" encoding="utf-8"?>
<!-- Generator: Adobe Illustrator 23.0.5, SVG Export Plug-In . SVG Version: 6.00 Build 0)  -->
<svg version="1.1" id="Layer_1_1_" xmlns="http://www.w3.org/2000/svg" xmlns:xlink="http://www.w3.org/1999/xlink" x="0px" y="0px"
	 viewBox="0 0 512 512" style="enable-background:new 0 0 512 512;" xml:space="preserve">
<style type="text/css">
	.st0{fill:#FFFFFF;}
</style>
<path class="st0" d="M72,120c23.8,0,43.5-17.3,47.3-40h93.4l-10.3,10.3l11.3,11.3L243.3,72l-29.7-29.7l-11.3,11.3L212.7,64h-93.4
	C115.5,41.3,95.8,24,72,24c-26.5,0-48,21.5-48,48S45.5,120,72,120z"/>
<path class="st0" d="M396,64h-52.7c-3.8-22.7-23.5-40-47.3-40c-26.5,0-48,21.5-48,48s21.5,48,48,48c23.8,0,43.5-17.3,47.3-40H396
	c46.3,0,84,37.7,84,84s-37.7,84-84,84H267.3l10.3-10.3l-11.3-11.3L236.7,256l29.7,29.7l11.3-11.3L267.3,264H396
	c55.1,0,100-44.9,100-100S451.1,64,396,64z"/>
<circle class="st0" cx="440" cy="440" r="48"/>
<path class="st0" d="M216,392c-26.5,0-48,21.5-48,48s21.5,48,48,48c23.8,0,43.5-17.3,47.3-40h93.4l-10.3,10.3l11.3,11.3l29.7-29.7
	l-29.7-29.7l-11.3,11.3l10.3,10.3h-93.4C259.5,409.3,239.8,392,216,392L216,392z"/>
<path class="st0" d="M116,448h16.7l-10.3,10.3l11.3,11.3l29.7-29.7l-29.7-29.7l-11.3,11.3l10.3,10.3H116c-46.3,0-84-37.7-84-84
	s37.7-84,84-84h20.7c3.8,22.7,23.5,40,47.3,40c26.5,0,48-21.5,48-48s-21.5-48-48-48c-23.8,0-43.5,17.3-47.3,40H116
	c-55.1,0-100,44.9-100,100S60.9,448,116,448L116,448z"/>
</svg>
