<?xml version="1.0" encoding="utf-8"?>
<!-- Generator: Adobe Illustrator 23.0.5, SVG Export Plug-In . SVG Version: 6.00 Build 0)  -->
<svg version="1.1" id="Layer_1_1_" xmlns="http://www.w3.org/2000/svg" xmlns:xlink="http://www.w3.org/1999/xlink" x="0px" y="0px"
	 viewBox="0 0 181.7 188" style="enable-background:new 0 0 181.7 188;" xml:space="preserve">
<style type="text/css">
	.st0{fill:#FFFFFF;}
	.st1{fill:none;stroke:#FFFFFF;stroke-width:10;stroke-miterlimit:10;}
	.st2{fill:none;stroke:#FFFFFF;stroke-width:9;stroke-linecap:round;stroke-linejoin:round;stroke-miterlimit:10;}
	.st3{fill:none;stroke:#FFFFFF;stroke-width:9;stroke-miterlimit:10;}
</style>
<path class="st0" d="M-147-619.7c23.8,0,43.5-17.3,47.3-40h93.4l-10.3,10.3L-5.3-638l29.7-29.7l-29.7-29.7L-16.7-686l10.3,10.3
	h-93.4c-3.8-22.7-23.5-40-47.3-40c-26.5,0-48,21.5-48,48S-173.5-619.7-147-619.7z"/>
<path class="st0" d="M177-675.7h-52.7c-3.8-22.7-23.5-40-47.3-40c-26.5,0-48,21.5-48,48s21.5,48,48,48c23.8,0,43.5-17.3,47.3-40H177
	c46.3,0,84,37.7,84,84s-37.7,84-84,84H48.3L58.7-502l-11.3-11.3l-29.7,29.7L47.3-454l11.3-11.3l-10.3-10.3H177
	c55.1,0,100-44.9,100-100C277-630.8,232.1-675.7,177-675.7z"/>
<circle class="st0" cx="221" cy="-299.7" r="48"/>
<path class="st0" d="M-3-347.7c-26.5,0-48,21.5-48,48s21.5,48,48,48c23.8,0,43.5-17.3,47.3-40h93.4l-10.3,10.3l11.3,11.3l29.7-29.7
	l-29.7-29.7L127.3-318l10.3,10.3H44.3C40.5-330.4,20.8-347.7-3-347.7L-3-347.7z"/>
<path class="st0" d="M-103-291.7h16.7l-10.3,10.3l11.3,11.3l29.7-29.7l-29.7-29.7L-96.7-318l10.3,10.3H-103c-46.3,0-84-37.7-84-84
	s37.7-84,84-84h20.7c3.8,22.7,23.5,40,47.3,40c26.5,0,48-21.5,48-48s-21.5-48-48-48c-23.8,0-43.5,17.3-47.3,40H-103
	c-55.1,0-100,44.9-100,100S-158.1-291.7-103-291.7L-103-291.7z"/>
<g>
	<path class="st0" d="M354.7,319.5v48.3c0,11.5,5.1,18.1,13.8,18.1c30,0.1,59.9,0.1,89.8,0c0.3,0,0.6,0,0.9,0c0.4,0,0.8,0,1.3,0
		c1,0,1.9,0.1,2.9,0.2c0.5,0,1.1-0.1,1.6-0.1c0.8,0,1.6,0.1,2.4,0.2c0.3,0,0.5,0,0.8,0c0.5,0,1,0,1.5,0.1c0,0,0,0,0,0
		c1.1-0.1,2.1-0.2,3.2-0.2c12.5,0,25,0.1,37.5-0.1c1.7,0,3.4-1.7,5.1-2.5c-0.7-2.1-1.3-4.7-2.3-6.6c-1.9-3.1-4.1-6-6.3-8.5
		c-2.8-3.1-3.8-6.7-3.7-11.5c0.2-13.4,0.1-26.6,0.1-40c0-6.1-1-12.3-5.2-14.9c-0.6-0.4-1.1-0.8-1.6-1.3c-0.3-0.2-0.7-0.5-1-0.7
		c-0.2-0.1-0.4-0.3-0.6-0.4c-0.1,0-0.3-0.1-0.4-0.1c-0.2-0.1-0.4-0.1-0.6-0.2c-0.7-0.1-1.5-0.3-2.2-0.5c-0.6,0-1.3-0.1-1.9-0.2
		c-0.6,0.1-1.1,0.1-1.7,0.1c-0.5,0-0.9,0-1.4-0.1H370.4C359,298.6,354.7,304.3,354.7,319.5z M360.8,316.8c0-7.5,2.3-10.4,8-10.4
		h120.1c6.2,0,8.3,2.9,8.3,11.3c0.1,10.7,0.3,21.5-0.1,32.2c-0.4,10.1-0.4,19.9,7,26.4c0.1,0.2,0.1,0.5,0.3,1.3
		c-0.8,0.1-1.4,0.4-2,0.4c-44.9,0-89.6,0-134.5-0.1c-4.9,0-7-3.1-7-9.8C360.7,351,360.7,333.8,360.8,316.8z"/>
	<path class="st0" d="M443.7,351.1c-1.4,0.5-2.9,1.3-4.3,1.3c-1.3,0-2.7-0.8-3.7-1.7c-1.3-1.3-2-4.1-3.3-4.4
		c-3.2-0.7-6.7-0.6-9.9-0.1c-1.2,0.2-2,2.7-3.2,3.8s-2.8,1.7-4.2,2.5c-0.6-1.7-2-3.6-1.6-4.9c3.1-9,6.5-17.8,10-26.6
		c0.5-1.3,2.2-2.7,3.5-2.9c1.3-0.1,3.4,1.1,3.9,2.2c3.8,9.2,7.2,18.6,10.8,27.9c0.1,0.3,0.1,0.7,0.2,1
		C442.4,349.9,443,350.5,443.7,351.1z M430.9,338.9c-1.2-3.1-2.2-5.7-3.6-9.6c-1.5,3.8-2.5,6.5-3.7,9.6
		C426.3,338.9,428.3,338.9,430.9,338.9z"/>
	<path class="st0" d="M479.7,339.1c0,2.2,0,4.3,0,7.1c2.7,0,5.3-0.4,7.6,0.1c1.4,0.3,2.5,1.9,3.8,3c-1.2,1.1-2.3,3-3.6,3.2
		c-3.6,0.4-7.4,0.6-10.9,0c-1.5-0.2-3.6-2.6-3.6-4.1c-0.3-8.8-0.1-17.6-0.1-26.4c0-0.3-0.1-0.8,0.1-1c1.6-1.1,3.3-3,4.9-2.9
		c4.4,0.4,9.4-2.4,12.9,2.1c0.3,0.4-1.4,3.2-2.8,4c-1.3,0.7-3.2,0.3-4.9,0.2c-2.9-0.2-3.8,1-3.8,3.8c0,2.6,0.6,4,3.6,3.9
		c2.7,0,7.1-1.4,7.2,3c0.1,4.8-4.5,3-7.3,3.5C481.9,338.7,481,338.9,479.7,339.1z"/>
	<path class="st0" d="M395.7,332.1c2.6,0,5-0.3,7.2,0.1c1.3,0.3,2.3,1.8,3.5,2.8c-1.2,1.2-2.1,3-3.5,3.4c-2.1,0.6-4.5,0.2-7.1,0.2
		c0,2.8,0,4.9,0,7.7c2.7,0,5.2-0.4,7.6,0.1c1.4,0.3,2.5,1.9,3.8,3c-1.2,1.1-2.3,3-3.6,3.2c-3.6,0.4-7.4,0.6-10.9,0
		c-1.4-0.2-3.5-2.6-3.6-4.1c-0.3-8.6-0.2-17.3-0.1-26c0-0.3-0.1-0.8,0.1-1c1.5-1.2,3.1-3.4,4.5-3.3c4.5,0.4,9.7-2.5,13.4,2.1
		c0.2,0.3-1.9,3.5-3.4,3.9c-2.3,0.7-4.9,0.2-7.7,0.2C395.7,327.1,395.7,329.3,395.7,332.1z"/>
	<path class="st0" d="M454.7,338.8c1.9-5.7,3.5-11.5,5.7-17c0.7-1.6,3.1-2.5,4.7-3.8c0.5,1.9,1.8,3.9,1.3,5.5
		c-2.5,8.4-5.3,16.8-8.3,25.1c-0.6,1.6-2.7,3.9-3.8,3.8c-1.6-0.3-3.7-2.1-4.3-3.8c-3.1-8.2-6-16.5-8.6-25c-0.5-1.6,0.7-3.7,1.1-5.6
		c1.7,1.2,4.1,2,4.8,3.6c2.4,5.6,4.2,11.4,6.2,17.2C453.9,338.9,454.3,338.9,454.7,338.8z"/>
	<path class="st0" d="M373.1,346.3c2.6,0,4.6-0.4,6.2,0.1c1.4,0.5,2.4,2.1,3.6,3.2c-1.1,1.1-2.1,2.9-3.3,3c-3.1,0.4-6.4,0.6-9.4,0
		c-1.5-0.3-3.5-2.7-3.5-4.3c-0.3-8.8-0.3-17.6,0-26.4c0-1.4,2.1-2.7,3.2-4.1c1.1,1.4,3,2.8,3.1,4.2
		C373.3,329.9,373.1,337.7,373.1,346.3z"/>
	<path class="st0" d="M456.9,235.6c-0.2-9.8-7.6-17-17.4-17.1c-23.3-0.2-46.7-0.2-70,0c-10.1,0-17.4,7.5-17.4,17.5
		c-0.1,44.3-0.1,88.7,0,133c0,9.8,7.3,17.2,17.1,17.3c23.5,0.2,47,0.2,70.5,0c5.1-0.1,9.5-1.9,12.5-5.4c-0.2,0-0.3,0-0.5-0.1
		c-0.9-0.2-1.6-0.4-2.3-0.5c-0.7,0-1.4-0.1-2.1-0.2c-1.4-0.2-2.7-0.5-3.9-1.1c-1.2,0.4-2.6,0.6-4.3,0.6c-11.3,0.2-22.7,0.1-34,0.1
		c-11.7,0-23.3,0-35-0.1c-6.9-0.1-11.1-4.1-11.2-10.8c-0.2-16.9-0.1-33.7-0.1-50.5c-3.1-4.8-1-11.9,5.4-14.5
		c5.8-2.3,13.8-0.9,19.9-1c4.9,0,9.8-0.3,14.7-0.4c-3.8-0.3-7.6-0.1-11.8-0.1v-13.4c0-0.3,0.1-0.7,0.2-1c2.1-8.1,9.2-11.5,21.6-10.4
		c7.6,0.7,12.9,6.1,13.3,13.7c0.2,4.3,0.6,8-4.6,10.5c1.2-0.3,2.5-0.4,3.8-0.4c1.2,0,2.3,0.1,3.4,0.3c1.3-0.3,2.5-0.5,3.8-0.7
		c1-0.8,2.1-1.5,3.2-2h-2.3c-3.3-23.3-7.9-28.1-26.3-28.1c-6-0.1-11.4,1.3-16.1,5.4c-7.9,7-7,16.4-7,25.7H359
		c-0.1-1.5-0.3-2.7-0.3-3.8c0-20.2-0.1-40.3,0-60.5c0.1-8.9,3.9-12.7,12.9-12.7h65.5c9.4,0.1,13.1,3.7,13.1,13
		c0.1,16.2,0,32.3,0.2,48.5c0.1,1.6,2,3.3,3,4.9c1.2-1.6,3.4-3.2,3.4-4.9C457.1,269.6,457.2,252.6,456.9,235.6z"/>
	<path class="st0" d="M404.3,239.5c12.2-0.1,14,1.2,14,10c0,11.1-5,17.6-13.6,17.7c-8.4,0.1-14-6.4-14-16.4
		C390.7,240.6,391.9,239.6,404.3,239.5z M397.5,246.6c0.2,4.8-1.8,9.9,3.4,12.7c1.9,1,5.4,1,7.3-0.1c5-2.9,3.4-7.9,3.2-12.7
		C406.7,246.6,402.4,246.6,397.5,246.6z"/>
</g>
<path class="st0" d="M294-181.8c0-1,0-1.7,0-2.3c0-7.3,0-14.6,0-21.9c0.1-9.9,7.4-18,16.8-18.8c10.5-0.9,19.2,5.5,21.1,15.5
	c0.2,1.3,0.2,2.7,0.3,4.1c0,7,0,14.1,0,21.1c0,0.7,0,1.4,0,2.4c0.9,0,1.7,0,2.4,0c18.9,0,37.9,0.2,56.8-0.1
	c6.7-0.1,11.9,4.6,11.8,11.7c-0.2,20.8-0.1,41.6-0.1,62.4c0,2.1,0.6,3.6,2,5.1c11.7,12.8,14.3,31.5,6.5,46.9
	c-13.7,27.5-51.1,31.5-70.3,7.7c-0.9-1.1-1.8-1.5-3.2-1.5c-34.4,0-68.8-0.1-103.1,0.1c-6.4,0-11.8-4.3-11.7-11.8
	c0.2-36.4,0.1-72.9,0.1-109.3c0-5.7,3-9.8,8.2-10.9c0.9-0.2,1.9-0.2,2.9-0.2c19.1,0,38.1,0,57.2,0C292.3-181.8,293-181.8,294-181.8z
	 M397.6-109.7c0-0.8,0-1.4,0-2.1c0-19.5,0-39,0-58.5c0-4.1-1.5-5.6-5.6-5.6c-19.1,0-38.3,0-57.4,0c-0.7,0-1.4,0-2.2,0
	c0,3.9,0,7.5,0,11.1c0,2.1-1,3.2-3,3.2c-10.7,0-21.5,0-32.2,0c-2,0-2.9-1-3-3.1c-0.1-3,0-6.1,0-9.1c0-0.7-0.1-1.4-0.1-2.1
	c-0.9,0-1.6,0-2.3,0c-19,0-38,0-57,0c-4.2,0-5.7,1.5-5.7,5.7c0,36.3,0,72.6-0.1,108.9c0,4.1,1.9,6.2,6.3,6.2c33.2,0,66.4,0,99.6,0
	c0.5,0,1.1-0.1,1.6-0.1c-7.8-18.3-5.9-35.2,8.4-49C360.6-119.3,378.6-119.9,397.6-109.7z M410.1-74.4c0-19.8-16.3-36.2-36.1-36.2
	c-19.9,0-36.3,16.3-36.2,36.3c0,19.8,16.4,36.1,36.2,36.1C393.8-38.2,410.1-54.6,410.1-74.4z M326.2-167.6c0.1-0.4,0.1-0.7,0.1-1
	c0-12.7,0.1-25.4-0.1-38.1c0-1.9-0.7-3.8-1.5-5.5c-2.7-5.3-8.8-8-14.6-6.6c-6,1.5-10.3,6.7-10.3,12.9c-0.1,12.4,0,24.8,0,37.2
	c0,0.4,0.1,0.7,0.1,1.1C308.7-167.6,317.4-167.6,326.2-167.6z"/>
<path class="st0" d="M-87.7,441.5c-3.6-0.7-7.3-0.8-11.7-1.2c20.4-10.4,24.6-29.1,21.3-42.3c-3.9-15.4-16.8-26.6-32.2-27.7
	c-16.7-1.2-31.4,7.8-37.2,22.8c-3.5,9.1-3.5,18.2,0.2,27.2c3.7,9.1,10.4,15.4,19,20c-1.4,0.4-2.6,0.3-3.8,0.4
	c-20.1,0.7-36.4,13.6-40.5,32.6c-1.2,5.6-1,11.6-1.1,17.4c-0.2,6.9,1.4,8.4,8.2,8.4h56.8c0.4-4,1.3-7.8,2.7-11.4h-55.8
	c-3.8-16,8.8-34.2,25.4-35.2c14.8-0.9,29.8-0.9,44.6,0c6.8,0.4,13,3.6,17.5,8.5c2.7-0.5,5.6-0.8,8.5-0.8c1.9,0,3.8,0.1,5.6,0.4
	C-66,450.9-75.6,444-87.7,441.5z M-114.2,431.7c-13.9-0.1-25.3-11.7-25.1-25.5c0.2-13.9,11.3-24.8,25.3-24.8s25.2,11.2,25.2,25.2
	C-88.9,420.7-100.2,431.8-114.2,431.7z"/>
<circle class="st1" cx="-66.3" cy="503.6" r="43.3"/>
<polygon class="st2" points="-131.4,861.5 -141.4,766.2 -46.6,852.6 "/>
<polygon class="st3" points="-141.9,766.5 -368.6,766.5 -368.6,1165.5 -46.1,1165.5 -46.1,851.7 "/>
<circle class="st2" cx="-336.5" cy="1108" r="95.5"/>
<circle class="st0" cx="-347" cy="1108" r="21.7"/>
<g>
	<path class="st0" d="M146.2,109.8c3,0,5.1,1.4,6.4,3.3c0.3,0,0.5,0,0.8,0c0.6,0,1.2,0.1,1.7,0.2v-87c-0.3-0.7-0.4-1.5-0.8-2.2
		c-1.2-2.3-3.1-3.8-5.7-3.9c-4.8-0.1-9.7-0.1-14.5-0.1c-0.1,0-0.2,0-0.4,0.1c0,0.3,0,0.6,0,0.9c-0.1,2.8,0.1,5.6-0.2,8.4
		c-0.7,6.9-6.6,12.9-13.5,14c-9.2,1.5-17.5-4.3-19.2-13.4c-0.2-1.1-0.2-2.2-0.3-3.3c0-2.2,0-4.4,0-6.6H57.8c0,0.3,0,0.6,0,0.8
		c0,2.1,0,4.3,0,6.4c-0.1,8.3-6.4,15.4-14.9,16.3c-8.8,0.9-16.7-5.2-18.1-13.8c-0.4-2.8-0.2-5.7-0.3-8.6c0-0.4,0-0.8,0-1.2h-0.9
		c-4.3,0-8.6,0-12.9,0c-3.9,0-6.5,2.1-7.4,5.9c0,0.1-0.1,0.1-0.1,0.2v120.5c0.4,1.7,1.1,3.2,2.4,4.4c1.1,1,2.4,1.4,3.8,1.8h96.5
		c-0.8-0.7-1.3-1.5-1.6-2.5c-0.5-0.9-0.7-2-0.7-3.1c0-0.2,0-0.3,0-0.5c0.1-0.7,0.2-1.5,0.3-2.2c0-0.1,0-0.2,0-0.2
		c0.4-1.3,0.9-2.3,1.7-3.3H15V50.8h128.2v59.6C144.1,110,145.1,109.8,146.2,109.8z"/>
	<path class="st0" d="M42.1,1.2c0.3,0.1,0.7,0.2,1,0.3c3,0.9,5.1,3.5,5.1,6.6c0,6.5,0.1,12.9,0,19.4c0,3.9-3.2,6.9-7.1,6.9
		c-3.9,0-7.1-3.1-7.1-7c0-6.4,0-12.8,0-19.2c0-3.4,2.4-6.1,5.7-6.8c0.2,0,0.3-0.1,0.5-0.2C40.9,1.2,41.5,1.2,42.1,1.2z"/>
	<path class="st0" d="M118,1.2c0.3,0.1,0.7,0.2,1,0.3c3,0.9,5.1,3.5,5.1,6.6c0,6.5,0.1,12.9,0,19.4c0,3.9-3.2,6.9-7.1,6.9
		c-3.9,0-7.1-3.1-7.1-7c0-6.4,0-12.8,0-19.2c0-3.4,2.4-6.1,5.7-6.8c0.2,0,0.3-0.1,0.5-0.2C116.8,1.2,117.4,1.2,118,1.2z"/>
	<path class="st0" d="M67.3,106.5c-4.5,0-8.9,0-13.3,0c-1.2,0-2.4-0.1-3.5-0.4c-5-1.3-8.3-6.2-7.7-11.3c0.6-5.2,4.9-9.2,10.1-9.3
		c4.7-0.1,9.5,0,14.4,0c0-0.5,0.1-0.9,0.1-1.3c0-4.4-0.1-8.7,0-13.1c0.1-5.1,3.9-9.4,8.9-10.2c5-0.8,9.9,2.2,11.5,7
		c0.4,1.2,0.6,2.5,0.6,3.8c0.1,4.1,0,8.2,0,12.3c0,0.4,0,0.8,0,1.4c0.5,0,0.9,0,1.3,0c4.2,0,8.5,0,12.7,0c6.2,0.1,10.7,4.9,10.5,11
		c-0.2,5.6-4.8,10-10.7,10c-4.2,0-8.3,0-12.5,0c-0.4,0-0.8,0-1.4,0c0,0.5,0,0.9,0,1.3c0,4.3,0,8.6,0,12.9
		c-0.1,5.7-4.6,10.3-10.2,10.5c-5.9,0.2-10.7-4.5-10.8-10.4c-0.1-4.2,0-8.5,0-12.7C67.3,107.6,67.3,107.1,67.3,106.5z"/>
	<g>
		<path class="st0" d="M97.6,144.4c0-22.1,18.1-40.2,40.3-40.3c22.5,0,40.5,18,40.6,40.6c0.1,22-18.2,40.2-40.3,40.3
			C115.6,185,97.6,167,97.6,144.4z M105.5,144.5c0.1,18.3,14.6,32.6,32.8,32.5c17.8-0.1,32.3-14.7,32.2-32.5
			c-0.1-18.3-14.6-32.6-32.8-32.5C119.8,112.2,105.4,126.7,105.5,144.5z"/>
		<path class="st0" d="M158.1,156.4c-1,1.7-1.9,3.1-2.9,4.8c-6.8-4.1-13.4-8-19.9-12c-0.6-0.4-1.2-1.4-1.2-2.2
			c-0.1-7.4-0.1-14.8-0.1-22.4c2,0,3.8,0,6,0c0,5.8,0.1,11.7-0.1,17.5c-0.1,2.6,0.7,4.1,3,5.3C148.1,150.2,153,153.4,158.1,156.4z"
			/>
	</g>
</g>
</svg>
