<?xml version="1.0" encoding="utf-8"?>
<!-- Generator: Adobe Illustrator 23.0.5, SVG Export Plug-In . SVG Version: 6.00 Build 0)  -->
<svg version="1.1" id="Layer_1" xmlns="http://www.w3.org/2000/svg" xmlns:xlink="http://www.w3.org/1999/xlink" x="0px" y="0px"
	 viewBox="0 0 526 530" style="enable-background:new 0 0 526 530;" xml:space="preserve">
<g>
	<path d="M21.1,517c-11-5.5-14.4-14.1-14.4-26.6C7,339.2,6.7,188,6.5,36.9c0-3.8-0.3-7.6,0.2-11.4C7.9,15.7,16.8,7.3,25.5,7.4
		c10.8,0.2,17.9,7.1,18.1,18.9c0.5,32.2,0.9,64.4,1,96.6c0.3,113.7,0.5,227.3,0.7,341c0,4.1,0,8.2,0,13.9c6.1,0,10.9,0,15.7,0
		c139.4,0.4,278.9,0.8,418.3,1.3c3.8,0,7.6,0.5,11.4,0.1c13.7-1.6,22.5,4.2,26.5,17.3c0,6.8,0,13.6,0,20.5
		C351.8,517,186.4,517,21.1,517z"/>
	<path d="M201.8,223.4c21.4-0.2,38.8,16.4,39.2,37.5c0.5,21.7-16.8,39.8-38,40c-21.4,0.1-38.4-16.4-38.8-37.7
		C163.9,240.5,179.8,223.6,201.8,223.4z"/>
	<path d="M85.2,359.7c0.2-21.3,17.7-38.9,38.3-38.5c22.6,0.4,39.3,17.8,38.8,40.3c-0.4,21-18.2,37.8-39.4,37.3
		C102.1,398.4,84.9,380.6,85.2,359.7z"/>
	<path d="M397,339.9c-21.6-0.8-38.1-19-37-40.9c1-20.7,18.5-37,39.1-36.5c22.3,0.5,39.2,18.7,38.1,40.9
		C436.1,324.5,418.3,340.7,397,339.9z"/>
	<path d="M260.5,398.8c0.1,21.6-16.2,38.7-37.5,39.1c-22.3,0.4-39.9-16.8-39.9-39.1c0-20.7,17.6-38,38.8-38
		C243.4,360.8,260.4,377.5,260.5,398.8z"/>
	<path d="M399.1,203.3c0-21.6,16.6-38.5,37.8-38.5c22.8,0,39.7,16.9,39.4,39.4c-0.3,20.8-17,37.3-37.9,37.4
		C416.3,241.9,399.1,225,399.1,203.3z"/>
	<path d="M477.2,47.1c22.1,0.1,38.5,16.9,38.3,39.3c-0.1,20.8-17.9,38.2-38.8,37.9c-21.4-0.3-38.9-18.3-38.6-39.6
		C438.5,63.5,455.6,47,477.2,47.1z"/>
	<path d="M319.6,320.6c0.1,21.3-16.5,38.2-37.9,38.6c-22,0.4-39.6-16.6-39.6-38.2c0-20.8,16.9-38.4,36.8-38.6
		C302,282.2,319.4,298.6,319.6,320.6z"/>
	<path d="M319.9,184c21.8-0.2,38.5,16.8,38.5,39.2c0,21.5-16.6,37.9-38.4,37.9c-22,0-38.3-16-38.4-37.8
		C281.5,201.3,298.2,184.2,319.9,184z"/>
	<path d="M358.4,163.1c-21.2-0.1-37.8-17.2-37.8-38.7c0.1-21.4,17.9-38.7,39.4-38.3c21.1,0.4,37.9,17.7,37.8,38.9
		C397.8,146.8,380.8,163.2,358.4,163.1z"/>
</g>
</svg>
